<svg width="24" height="24" viewBox="0 0 24 24" fill="none" xmlns="http://www.w3.org/2000/svg">
<path d="M21 4.79999L19.1334 6.19999C18.7872 6.45963 18.3661 6.59999 17.9334 6.59999H13.77C13.053 6.59999 12.3975 7.00511 12.0768 7.64646V7.64646C11.6811 8.43792 11.8864 9.39792 12.5712 9.95826L15.476 12.3349C17.05 13.6227 17.8645 15.62 17.6399 17.6412L17.4936 18.9576C17.4314 19.5176 17.3102 20.0695 17.132 20.604L16.8 21.6" stroke="#4E7D91" stroke-width="2"/>
<path d="M0.599976 10.2L5.03807 9.46032C6.39172 9.23471 7.56527 10.4083 7.33966 11.7619L7.08566 13.2859C6.79697 15.018 7.67458 16.7373 9.24522 17.5226V17.5226C10.5029 18.1514 11.1573 19.5705 10.8163 20.9347L10.2 23.4" stroke="#4E7D91" stroke-width="2"/>
<circle cx="12" cy="12" r="11" stroke="#4E7D91" stroke-width="2"/>
</svg>
