<svg width="24" height="24" viewBox="0 0 24 24" fill="none" xmlns="http://www.w3.org/2000/svg">
<path d="M1 10.5C2 10 4.2 9.10001 5 9.50001C6 10 7 10.5 7 11.5C7 12.5 6.5 14 7 15C7.5 16 8 16.5 9 17.5C10 18.5 11.5 19 11 20.5C10.5 22 11.5 23.5 10 23C8.5 22.5 6 21.5 5 20.5C4 19.5 2.5 17.5 2 16.5C1.5 15 1 13.5 1 13V10.5Z" fill="#4E7D91"/>
<path d="M13 7H14.5H17C17.4 7 18.8333 6 19.5 5.5L20.5 6C20.8333 6.16667 21.6 6.7 22 7.5C22.5 8.5 23.5 14 22.5 15C21.5 16 20 21 19 21C18.2 21 17.6667 20 17.5 19.5V16.5L16 13L13 10L12.5 7.5L13 7Z" fill="#4E7D91"/>
<path d="M21 4.79999L19.1334 6.19999C18.7872 6.45963 18.3661 6.59999 17.9334 6.59999H13.77C13.053 6.59999 12.3975 7.00511 12.0768 7.64646V7.64646C11.6811 8.43792 11.8864 9.39792 12.5712 9.95826L15.476 12.3349C17.05 13.6227 17.8645 15.62 17.6399 17.6412L17.4936 18.9576C17.4314 19.5176 17.3102 20.0695 17.132 20.604L16.8 21.6" stroke="#4E7D91" stroke-width="2"/>
<path d="M0.599976 10.2L5.03807 9.46032C6.39172 9.23471 7.56527 10.4083 7.33966 11.7619L7.08566 13.2859C6.79697 15.018 7.67458 16.7373 9.24522 17.5226V17.5226C10.5029 18.1514 11.1573 19.5705 10.8163 20.9347L10.2 23.4" stroke="#4E7D91" stroke-width="2"/>
<circle cx="12" cy="12" r="11" stroke="#4E7D91" stroke-width="2"/>
</svg>
