<svg width="26" height="25" viewBox="0 0 26 25" fill="none" xmlns="http://www.w3.org/2000/svg">
<path d="M14.3508 1.22609C14.5379 1.25794 14.7252 1.2949 14.9125 1.33706C20.6669 2.63215 24.2819 8.34687 22.9868 14.1013C21.6917 19.8557 15.977 23.4706 10.2226 22.1756C8.2476 21.7311 6.52462 20.7659 5.16567 19.4573C10.7257 20.4038 16.1152 16.8391 17.3681 11.272C18.2187 7.49264 16.9513 3.73036 14.3508 1.22609Z" stroke="black" stroke-linejoin="round"/>
<path d="M3.92328 8.87862C4.09351 9.11972 4.19124 9.4129 4.3867 9.99927C4.63046 10.7306 4.75234 11.0962 4.939 11.1886C5.07879 11.2578 5.24285 11.2578 5.38264 11.1886C5.5693 11.0962 5.69118 10.7306 5.93494 9.99927C6.1304 9.4129 6.22813 9.11972 6.39836 8.87862C6.52989 8.69232 6.69232 8.52989 6.87862 8.39836C7.11972 8.22813 7.4129 8.1304 7.99927 7.93494C8.73056 7.69118 9.0962 7.5693 9.1886 7.38264C9.2578 7.24285 9.2578 7.07879 9.1886 6.939C9.0962 6.75234 8.73056 6.63046 7.99927 6.3867C7.4129 6.19124 7.11972 6.09351 6.87862 5.92328C6.69232 5.79175 6.52989 5.62932 6.39836 5.44302C6.22813 5.20192 6.1304 4.90874 5.93494 4.32237C5.69118 3.59108 5.5693 3.22544 5.38264 3.13304C5.24285 3.06384 5.07879 3.06384 4.939 3.13304C4.75234 3.22544 4.63046 3.59108 4.3867 4.32237C4.19124 4.90874 4.09351 5.20192 3.92328 5.44302C3.79175 5.62932 3.62932 5.79175 3.44302 5.92328C3.20192 6.09351 2.90874 6.19124 2.32237 6.3867C1.59108 6.63046 1.22544 6.75234 1.13304 6.939C1.06384 7.07879 1.06384 7.24285 1.13304 7.38264C1.22544 7.5693 1.59108 7.69118 2.32237 7.93494C2.90874 8.1304 3.20192 8.22813 3.44302 8.39836C3.62932 8.52989 3.79175 8.69232 3.92328 8.87862Z" stroke="black"/>
</svg>
