<svg width="16" height="23" viewBox="0 0 16 23" fill="none" xmlns="http://www.w3.org/2000/svg">
<circle cx="8.00002" cy="8.64285" r="4.07143" stroke="#0B0C21"/>
<path d="M15.5 9.02382C15.5 12.0817 13.5966 15.2993 11.6081 17.8085C10.6236 19.0509 9.63784 20.0955 8.89787 20.8296C8.52818 21.1963 8.22061 21.4848 8.00624 21.681C8.00416 21.6829 8.00208 21.6848 8.00001 21.6867C7.99794 21.6848 7.99587 21.6829 7.99378 21.681C7.77941 21.4848 7.47184 21.1963 7.10215 20.8296C6.36218 20.0955 5.37641 19.0509 4.39188 17.8085C2.40345 15.2993 0.5 12.0817 0.5 9.02382C0.5 4.64911 3.87953 1.14285 8.00001 1.14285C12.1205 1.14285 15.5 4.64911 15.5 9.02382Z" stroke="#0B0C21"/>
</svg>
