<svg width="31" height="23" viewBox="0 0 31 23" fill="none" xmlns="http://www.w3.org/2000/svg">
<path d="M18.8887 6.78537L18.0977 7.39719L18.8887 6.78537ZM21.3284 9.72095L21.9035 8.90287L21.3284 9.72095ZM22.168 10.133L22.4632 9.17754L22.168 10.133ZM11.6697 21.9732L11.5982 20.9758L11.6697 21.9732ZM11.5982 20.9758C11.3748 20.9918 11.149 21 10.921 21V23C11.1968 23 11.4703 22.9901 11.7412 22.9707L11.5982 20.9758ZM10.921 21C5.95614 21 2 17.1423 2 12.4666H0C0 18.3212 4.92747 23 10.921 23V21ZM2 12.4666C2 7.79101 5.95614 3.93332 10.921 3.93332V1.93332C4.92747 1.93332 0 6.61205 0 12.4666H2ZM10.921 3.93332C13.8715 3.93332 16.4767 5.30139 18.0977 7.39719L19.6797 6.17355C17.6847 3.59424 14.4983 1.93332 10.921 1.93332V3.93332ZM24.4735 11.2667C26.1304 11.2667 27.4735 12.6098 27.4735 14.2667H29.4735C29.4735 11.5053 27.235 9.26669 24.4735 9.26669V11.2667ZM27.4735 14.2667V18H29.4735V14.2667H27.4735ZM27.4735 18C27.4735 19.6569 26.1304 21 24.4735 21V23C27.235 23 29.4735 20.7614 29.4735 18H27.4735ZM24.4735 21H11.6975V23H24.4735V21ZM11.6975 21C12.2423 21 12.6841 21.4417 12.6841 21.9866H10.6841C10.6841 22.5463 11.1378 23 11.6975 23V21ZM18.0977 7.39719C18.7836 8.28396 19.3109 8.96577 19.7127 9.45724C20.0862 9.91395 20.436 10.316 20.7533 10.539L21.9035 8.90287C21.9047 8.90369 21.8888 8.8924 21.8532 8.85942C21.8187 8.82744 21.7734 8.7824 21.7157 8.72057C21.5991 8.59578 21.4509 8.42343 21.2611 8.19125C20.8806 7.7259 20.3732 7.07017 19.6797 6.17355L18.0977 7.39719ZM24.4735 9.26669C23.8398 9.26669 23.3985 9.26645 23.0605 9.25102C22.7202 9.23548 22.557 9.20651 22.4632 9.17754L21.8727 11.0884C22.2118 11.1931 22.577 11.231 22.9693 11.2489C23.3637 11.2669 23.8588 11.2667 24.4735 11.2667V9.26669ZM20.7533 10.539C20.9243 10.6592 21.0917 10.7783 21.2841 10.8728C21.4764 10.9672 21.6731 11.0267 21.8727 11.0884L22.4632 9.17754C22.2251 9.10396 22.1894 9.08921 22.1652 9.07731C22.1409 9.06541 22.1074 9.04619 21.9035 8.90287L20.7533 10.539ZM11.7412 22.9707C11.1708 23.0116 10.6841 22.56 10.6841 21.9866H12.6841C12.6841 21.3976 12.1841 20.9338 11.5982 20.9758L11.7412 22.9707Z" fill="#4E7D91"/>
<path d="M26.5427 11.7151C27.3629 11.1781 28.0345 10.4571 28.4994 9.61452C28.9643 8.77191 29.2083 7.83311 29.2105 6.87942C29.2127 5.92574 28.9728 4.98592 28.5118 4.14138C28.0508 3.29684 27.3824 2.57303 26.5646 2.03265C25.7468 1.49227 24.8043 1.15162 23.8186 1.04018C22.8329 0.928752 21.8338 1.04991 20.9079 1.39315C19.9819 1.7364 19.157 2.29139 18.5046 3.01006C17.8521 3.72872 17.3919 4.58939 17.1636 5.51752" stroke="#4E7D91" stroke-width="2"/>
</svg>
