<svg width="30" height="23" viewBox="0 0 30 23" fill="none" xmlns="http://www.w3.org/2000/svg">
<path fill-rule="evenodd" clip-rule="evenodd" d="M11.375 22.9852C11.375 22.9766 11.3677 22.9698 11.3591 22.9704C11.0961 22.99 10.8305 23 10.5625 23C4.72899 23 0 18.271 0 12.4375C0 6.60399 4.72899 1.875 10.5625 1.875C13.9932 1.875 17.0418 3.51055 18.9713 6.04444C20.6208 8.21077 21.4456 9.29394 21.9636 9.59459C22.1296 9.69097 22.1404 9.69633 22.3177 9.77005C22.8707 10 23.6638 10 25.25 10C27.4591 10 29.25 11.7909 29.25 14V19C29.25 21.2091 27.4591 23 25.25 23H11.3898C11.3816 23 11.375 22.9934 11.375 22.9852Z" fill="#4E7D91"/>
<path fill-rule="evenodd" clip-rule="evenodd" d="M29.5697 10.5951C29.8486 9.78135 30 8.90835 30 8C30 3.58172 26.4183 0 22 0C19.9528 0 18.0853 0.768944 16.6703 2.03376C18.0282 2.83261 19.2156 3.88932 20.1647 5.13571C20.9974 6.22933 21.5952 7.01385 22.0495 7.56537C22.494 8.10485 22.6825 8.26749 22.7127 8.29354C22.7166 8.29692 22.7178 8.298 22.7166 8.29729C22.7599 8.3224 22.7819 8.33507 22.7974 8.3438L22.8025 8.3466L22.8077 8.3489C22.8241 8.35601 22.8475 8.36582 22.8937 8.38502C22.9406 8.40454 23.0809 8.44892 23.4889 8.47411C23.8974 8.49933 24.4378 8.5 25.25 8.5C27.0019 8.5 28.5625 9.31906 29.5697 10.5951ZM27.7175 13.5956C27.5242 12.4072 26.4931 11.5 25.25 11.5H25.2035H25.2035C24.45 11.5 23.8163 11.5 23.304 11.4684C22.7807 11.4361 22.2479 11.3655 21.7418 11.1551C21.5036 11.056 21.4337 11.0214 21.2106 10.8919C20.6821 10.5851 20.1861 10.0216 19.7341 9.47292C19.2386 8.87151 18.6061 8.04083 17.7997 6.98178L17.7996 6.98166L17.7779 6.95316C16.9899 5.91827 15.9857 5.05881 14.8329 4.44181C14.2998 5.51354 14 6.72176 14 8C14 12.4183 17.5817 16 22 16C24.2401 16 26.2652 15.0793 27.7175 13.5956Z" fill="#4E7D91"/>
</svg>
