<?xml version="1.0" encoding="UTF-8"?><svg id="Layer_2" xmlns="http://www.w3.org/2000/svg" xmlns:xlink="http://www.w3.org/1999/xlink" viewBox="0 0 22.14 18.3"><defs><style>.cls-1{fill:url(#linear-gradient-2);}.cls-2{fill:url(#linear-gradient);}</style><linearGradient id="linear-gradient" x1="6.83" y1="1065.52" x2="21.39" y2="1080.51" gradientTransform="translate(0 -1064.34)" gradientUnits="userSpaceOnUse"><stop offset="0" stop-color="#d9e9f1"/><stop offset="1" stop-color="#bfd7e2"/></linearGradient><linearGradient id="linear-gradient-2" x1="-1867.27" y1="1068.77" x2="-1856.28" y2="1085.59" gradientTransform="translate(1870 -1064.34)" gradientUnits="userSpaceOnUse"><stop offset="0" stop-color="#b0eaff"/><stop offset="1" stop-color="#59caff"/></linearGradient></defs><g id="Layer_1-2"><path id="JX" class="cls-2" d="M21.9,9.7c-.1-.1-.3,0-.4,0-.6,.4-1.2,.6-1.9,.8-.6,.1-1.3,.2-2,.1-1.5-.2-2.8-1-3.7-2.2s-1.3-2.7-1.1-4.2c.1-.7,.3-1.3,.6-1.8,.3-.6,.7-1.1,1.2-1.5,.2-.2,.2-.5,0-.7-.1-.1-.3-.2-.4-.2-1.7,.2-3.2,1-4.5,2.1-1.2,1.2-2,2.7-2.2,4.4-.3,2,.2,4.1,1.4,5.7,1.2,1.6,3,2.7,5,3,1.7,.2,3.4-.1,4.9-1s2.7-2.2,3.3-3.8c.1-.3,0-.6-.2-.7h0Z"/><path id="Io" class="cls-1" d="M14.9,18.2c1.9,0,3.5-1.6,3.5-3.6,0-1.6-1-3-2.6-3.5,0-1.5-1.3-2.7-2.8-2.6-.4,0-.8,.1-1.1,.3-.9-2.1-3.4-3.1-5.5-2.2-1.2,.5-2,1.5-2.4,2.7-2.3,.3-4,2.2-4,4.5s1.9,4.5,4.3,4.5H14.9v-.1Z"/></g></svg>