<?xml version="1.0" encoding="UTF-8"?><svg id="Layer_2" xmlns="http://www.w3.org/2000/svg" xmlns:xlink="http://www.w3.org/1999/xlink" viewBox="0 0 24 24"><defs><style>.cls-1{fill:url(#linear-gradient-2);}.cls-2{fill:#fff59d;}.cls-3{clip-path:url(#clippath);}.cls-4{fill:none;}.cls-5{fill:url(#linear-gradient);}</style><clipPath id="clippath"><rect class="cls-4" width="24" height="24"/></clipPath><linearGradient id="linear-gradient" x1="6.77" y1="1066.7" x2="22.75" y2="1083.5" gradientTransform="translate(0 -1064.34)" gradientUnits="userSpaceOnUse"><stop offset="0" stop-color="#ffda57"/><stop offset="1" stop-color="#fccf2e"/></linearGradient><linearGradient id="linear-gradient-2" x1="3.71" y1="1071.74" x2="14.7" y2="1088.56" gradientTransform="translate(0 -1064.34)" gradientUnits="userSpaceOnUse"><stop offset="0" stop-color="#b0eaff"/><stop offset="1" stop-color="#59caff"/></linearGradient></defs><g id="Layer_1-2"><g class="cls-3"><g><path id="In" class="cls-5" d="M14.7,16.9l-2.6,1.9-1-3.1h-3.2l1.1-3.1-2.7-1.9,2.7-1.9-1.1-3.1h3.2l1-3.1,2.6,1.9,2.6-1.9,1,3.1h3.2l-1,3.1,2.7,1.9-2.7,1.9,1,3.1h-3.2l-1,3.1-2.6-1.9Z"/><path class="cls-2" d="M14.6,15.4c2.5,0,4.6-2,4.6-4.6s-2-4.6-4.6-4.6-4.6,2-4.6,4.5,2,4.6,4.5,4.6q0,.1,.1,.1Z"/><path id="Io" class="cls-1" d="M15.9,21.2c1.9,0,3.5-1.6,3.5-3.6,0-1.6-1-3-2.6-3.5,0-1.5-1.3-2.7-2.8-2.6-.4,0-.8,.1-1.1,.3-.9-2.1-3.4-3.1-5.5-2.2-1.2,.5-2,1.5-2.4,2.7-2.3,.3-4,2.2-4,4.5s1.9,4.5,4.3,4.5H15.9v-.1Z"/></g></g></g></svg>