<svg xmlns="http://www.w3.org/2000/svg" xmlns:xlink="http://www.w3.org/1999/xlink" viewBox="0 0 24 24"><defs><style>.cls-1{fill:none;}.cls-2{clip-path:url(#clip-path);}.cls-3{fill:url(#linear-gradient);}.cls-4{fill:#fff59d;}.cls-5{fill:url(#linear-gradient-2);}.cls-6{fill:#7bd6ff;fill-rule:evenodd;}</style><clipPath id="clip-path"><rect class="cls-1" width="24" height="24"/></clipPath><linearGradient id="linear-gradient" x1="6.7" y1="1063.94" x2="22.68" y2="1080.74" gradientTransform="translate(0 -1064.34)" gradientUnits="userSpaceOnUse"><stop offset="0" stop-color="#ffda57"/><stop offset="1" stop-color="#fccf2e"/></linearGradient><linearGradient id="linear-gradient-2" x1="3.65" y1="1067.79" x2="14.64" y2="1084.62" gradientTransform="translate(0 -1064.34)" gradientUnits="userSpaceOnUse"><stop offset="0" stop-color="#b0eaff"/><stop offset="1" stop-color="#59caff"/></linearGradient></defs><g id="Layer_2" data-name="Layer 2"><g id="Layer_1-2" data-name="Layer 1"><g class="cls-2"><path class="cls-3" d="M14.6,14.1,12,16l-1-3.1H7.8L8.9,9.8,6.2,7.9,8.9,6,7.8,2.9H11L12-.2l2.6,1.9L17.2-.2l1,3.1h3.2L20.4,6l2.7,1.9L20.4,9.8l1,3.1H18.2l-1,3.1Z"/><path class="cls-4" d="M14.5,12.6a4.57,4.57,0,0,0,4.6-4.5h0a4.57,4.57,0,0,0-4.5-4.6h0a4.55,4.55,0,1,0-.1,9.1Z"/><path class="cls-5" d="M15.8,17.2a3.56,3.56,0,0,0,3.5-3.6,3.63,3.63,0,0,0-2.6-3.5,2.63,2.63,0,0,0-2.8-2.6,2,2,0,0,0-1.1.3A4.23,4.23,0,0,0,7.3,5.6,4.29,4.29,0,0,0,4.9,8.3a4.54,4.54,0,0,0-4,4.5,4.44,4.44,0,0,0,4.3,4.5l10.6-.1Z"/><path id="It" class="cls-6" d="M12.9,19.4l-2.4,4.3a.81.81,0,0,1-.9.3.81.81,0,0,1-.3-.9h0l2.4-4.3a.81.81,0,0,1,.9-.3A.61.61,0,0,1,12.9,19.4Zm-3.7,0L6.8,23.7a.81.81,0,0,1-.9.3.81.81,0,0,1-.3-.9h0L8,18.8a.81.81,0,0,1,.9-.3A.61.61,0,0,1,9.2,19.4Z"/></g></g></g></svg>