<svg xmlns="http://www.w3.org/2000/svg" xmlns:xlink="http://www.w3.org/1999/xlink" viewBox="0 0 22.91 23.9"><defs><style>.cls-1{fill:#7bd6ff;fill-rule:evenodd;}.cls-2{fill:url(#linear-gradient);}.cls-3{fill:url(#linear-gradient-2);}</style><linearGradient id="linear-gradient" x1="-366.46" y1="1065.53" x2="-351.9" y2="1080.52" gradientTransform="translate(374 -1064.34)" gradientUnits="userSpaceOnUse"><stop offset="0" stop-color="#d9e9f1"/><stop offset="1" stop-color="#bfd7e2"/></linearGradient><linearGradient id="linear-gradient-2" x1="-2240.47" y1="1067.56" x2="-2229.48" y2="1084.38" gradientTransform="translate(2244 -1064.34)" gradientUnits="userSpaceOnUse"><stop offset="0" stop-color="#b0eaff"/><stop offset="1" stop-color="#59caff"/></linearGradient></defs><g id="Layer_2" data-name="Layer 2"><g id="Layer_1-2" data-name="Layer 1"><path class="cls-1" d="M7.4,19.2,4.9,23.5a.81.81,0,0,1-.9.3.81.81,0,0,1-.3-.9h0l2.5-4.3a.81.81,0,0,1,.9-.3A.61.61,0,0,1,7.4,19.2Zm3.7,0L8.6,23.5a.81.81,0,0,1-.9.3.81.81,0,0,1-.3-.9h0l2.5-4.3a.81.81,0,0,1,.9-.3A.61.61,0,0,1,11.1,19.2Zm-7.6-.9a.61.61,0,0,0-.9.3h0L.1,22.9a.65.65,0,0,0,.2.9h0a.59.59,0,0,0,.9-.3l2.5-4.3A.65.65,0,0,0,3.5,18.3Zm14.9.9-2.5,4.3a.81.81,0,0,1-.9.3.81.81,0,0,1-.3-.9h0l2.5-4.3a.81.81,0,0,1,.9-.3h0A.61.61,0,0,1,18.4,19.2Zm-6.1,4.3a.71.71,0,0,1-.6.3.37.37,0,0,1-.3-.1.69.69,0,0,1-.3-.9h0l2.4-4.3a.91.91,0,0,1,1-.3.81.81,0,0,1,.3.9h0l-2.5,4.4Z"/><path id="JW" class="cls-2" d="M22.6,9.7c-.1-.1-.3,0-.4,0a6.39,6.39,0,0,1-1.9.8,6.56,6.56,0,0,1-2,.1,5.52,5.52,0,0,1-3.7-2.2,5.72,5.72,0,0,1-1.1-4.2,4.78,4.78,0,0,1,.6-1.8A4.43,4.43,0,0,1,15.3.9a.48.48,0,0,0,0-.7.76.76,0,0,0-.4-.2,8.53,8.53,0,0,0-4.5,2.1A7.42,7.42,0,0,0,8.2,6.5a7.69,7.69,0,0,0,1.4,5.7,7.71,7.71,0,0,0,5,3,7.81,7.81,0,0,0,8.2-4.8.43.43,0,0,0-.2-.7Z"/><path id="Ir" class="cls-3" d="M15.7,17a3.56,3.56,0,0,0,3.5-3.6,3.63,3.63,0,0,0-2.6-3.5,2.63,2.63,0,0,0-2.8-2.6,2,2,0,0,0-1.1.3A4.23,4.23,0,0,0,7.2,5.4,4.29,4.29,0,0,0,4.8,8.1a4.54,4.54,0,0,0-4,4.5,4.44,4.44,0,0,0,4.3,4.5L15.7,17Z"/></g></g></svg>