<svg xmlns="http://www.w3.org/2000/svg" xmlns:xlink="http://www.w3.org/1999/xlink" viewBox="0 0 24 24"><defs><style>.cls-1{fill:none;}.cls-2{clip-path:url(#clip-path);}.cls-3,.cls-4{fill:#7bd6ff;}.cls-4{fill-rule:evenodd;}.cls-5{fill:url(#linear-gradient);}.cls-6{fill:#fff59d;}.cls-7{fill:url(#linear-gradient-2);}</style><clipPath id="clip-path"><rect class="cls-1" width="24" height="24"/></clipPath><linearGradient id="linear-gradient" x1="6.75" y1="1063.88" x2="22.73" y2="1080.68" gradientTransform="translate(0 -1064.34)" gradientUnits="userSpaceOnUse"><stop offset="0" stop-color="#ffda57"/><stop offset="1" stop-color="#fccf2e"/></linearGradient><linearGradient id="linear-gradient-2" x1="3.71" y1="1067.73" x2="14.7" y2="1084.56" gradientTransform="translate(0 -1064.34)" gradientUnits="userSpaceOnUse"><stop offset="0" stop-color="#b0eaff"/><stop offset="1" stop-color="#59caff"/></linearGradient></defs><g id="Layer_2" data-name="Layer 2"><g id="Layer_1-2" data-name="Layer 1"><g class="cls-2"><path class="cls-3" d="M11.5,19.5l-.2-.4A.37.37,0,0,0,11,19h0l-.8.5v-.9a.22.22,0,0,0-.2-.2H9.5a.22.22,0,0,0-.2.2v.8l-.8-.5a.19.19,0,0,0-.3.1l-.2.4c-.1.1,0,.2.1.3l.8.5-.8.5A.37.37,0,0,0,8,21l.2.4a.37.37,0,0,0,.3.1l.8-.5v.8a.22.22,0,0,0,.2.2H10a.22.22,0,0,0,.2-.2V21l.8.5c.1.1.2,0,.3-.1l.2-.4c.1-.1,0-.2-.1-.3l-.8-.5.8-.5C11.5,19.7,11.6,19.6,11.5,19.5Z"/><path class="cls-4" d="M6.8,19.4,4.3,23.7a.6.6,0,0,1-.6.3.37.37,0,0,1-.3-.1.81.81,0,0,1-.3-.9h0l2.5-4.3a.81.81,0,0,1,.9-.3.91.91,0,0,1,.3,1Zm8.9,0-2.5,4.3a.6.6,0,0,1-.6.3.37.37,0,0,1-.3-.1A.81.81,0,0,1,12,23h0l2.5-4.3a.81.81,0,0,1,.9-.3.69.69,0,0,1,.3,1Z"/><path class="cls-5" d="M14.7,14.1,12.1,16l-1-3.1H7.9L9,9.8,6.4,7.9,9,6,7.9,2.9h3.2l1-3.1,2.6,1.9L17.3-.2l1,3.1h3.2L20.5,6l2.6,1.9L20.5,9.8l1,3.1H18.3l-1,3.1Z"/><path class="cls-6" d="M14.6,12.6a4.57,4.57,0,0,0,4.6-4.5h0a4.57,4.57,0,0,0-4.5-4.6h0a4.55,4.55,0,1,0-.1,9.1Z"/><path class="cls-7" d="M15.9,17.2a3.56,3.56,0,0,0,3.5-3.6,3.63,3.63,0,0,0-2.6-3.5A2.63,2.63,0,0,0,14,7.5a2,2,0,0,0-1.1.3A4.23,4.23,0,0,0,7.4,5.6,4.29,4.29,0,0,0,5,8.3a4.54,4.54,0,0,0-4,4.5,4.44,4.44,0,0,0,4.3,4.5l10.6-.1Z"/></g></g></g></svg>