<svg xmlns="http://www.w3.org/2000/svg" xmlns:xlink="http://www.w3.org/1999/xlink" viewBox="0 0 22.38 23.8"><defs><style>.cls-1,.cls-2{fill:#7bd6ff;}.cls-2{fill-rule:evenodd;}.cls-3{fill:url(#linear-gradient);}.cls-4{fill:url(#linear-gradient-2);}</style><linearGradient id="linear-gradient" x1="-162.9" y1="1065.55" x2="-148.34" y2="1080.54" gradientTransform="translate(170 -1064.34)" gradientUnits="userSpaceOnUse"><stop offset="0" stop-color="#d9e9f1"/><stop offset="1" stop-color="#bfd7e2"/></linearGradient><linearGradient id="linear-gradient-2" x1="-2037.04" y1="1067.66" x2="-2026.05" y2="1084.49" gradientTransform="translate(2040 -1064.34)" gradientUnits="userSpaceOnUse"><stop offset="0" stop-color="#b0eaff"/><stop offset="1" stop-color="#59caff"/></linearGradient></defs><g id="Layer_2" data-name="Layer 2"><g id="Layer_1-2" data-name="Layer 1"><path class="cls-1" d="M8.44,19.4l-.2-.4a.37.37,0,0,0-.3-.1l-.8.5v-.8a.22.22,0,0,0-.2-.2h-.5a.22.22,0,0,0-.2.2v.8l-.8-.5c-.1-.1-.2,0-.3.1h0l-.2.4c-.1.1,0,.2.1.3l.8.5-.8.5a.37.37,0,0,0-.1.3l.2.4a.37.37,0,0,0,.3.1l.8-.5v.8a.22.22,0,0,0,.2.2h.5a.22.22,0,0,0,.2-.2V21l.8.5a.19.19,0,0,0,.3-.1l.2-.4c.1-.1,0-.2-.1-.3l-.8-.5.8-.5C8.54,19.6,8.54,19.5,8.44,19.4Zm9,0-.2-.4a.37.37,0,0,0-.3-.1h0l-.8.5v-.8a.22.22,0,0,0-.2-.2h-.5a.22.22,0,0,0-.2.2v.8l-.8-.5c-.1-.1-.2,0-.3.1h0l-.2.4c-.1.1,0,.2.1.3l.8.5-.8.5a.37.37,0,0,0-.1.3h0l.2.4a.37.37,0,0,0,.3.1l.8-.5v.8a.22.22,0,0,0,.2.2h.5a.22.22,0,0,0,.2-.2V21l.8.5c.1.1.2,0,.3-.1l.2-.4c.1-.1,0-.2-.1-.3h0l-.8-.5.8-.5c.1-.1.2-.2.1-.3Z"/><path id="JF" class="cls-2" d="M3.74,19.2l-2.5,4.3a.6.6,0,0,1-.6.3.37.37,0,0,1-.3-.1.81.81,0,0,1-.3-.9H0l2.5-4.3a.81.81,0,0,1,.9-.3.73.73,0,0,1,.3,1Zm9,0-2.5,4.3a.71.71,0,0,1-.6.3.68.68,0,0,1-.7-.7.37.37,0,0,1,.1-.3l2.5-4.3a.65.65,0,0,1,.9-.2.81.81,0,0,1,.3.9Z"/><path id="JW" class="cls-3" d="M22.14,9.7c-.1-.1-.3,0-.4,0a6.39,6.39,0,0,1-1.9.8,6.56,6.56,0,0,1-2,.1,5.52,5.52,0,0,1-3.7-2.2A5.72,5.72,0,0,1,13,4.2a4.78,4.78,0,0,1,.6-1.8A4.43,4.43,0,0,1,14.84.9a.48.48,0,0,0,0-.7.76.76,0,0,0-.4-.2,8.53,8.53,0,0,0-4.5,2.1,7.42,7.42,0,0,0-2.2,4.4,7.69,7.69,0,0,0,1.4,5.7,7.71,7.71,0,0,0,5,3,7.81,7.81,0,0,0,8.2-4.8.62.62,0,0,0-.2-.7Z"/><path id="Ir" class="cls-4" d="M15.14,17.1a3.56,3.56,0,0,0,3.5-3.6A3.63,3.63,0,0,0,16,10a2.63,2.63,0,0,0-2.8-2.6,2,2,0,0,0-1.1.3,4.23,4.23,0,0,0-5.5-2.2,4.29,4.29,0,0,0-2.4,2.7,4.54,4.54,0,0,0-4,4.5,4.44,4.44,0,0,0,4.3,4.5l10.6-.1Z"/></g></g></svg>