<svg xmlns="http://www.w3.org/2000/svg" xmlns:xlink="http://www.w3.org/1999/xlink" viewBox="0 0 24 24"><defs><style>.cls-1{fill:none;}.cls-2{clip-path:url(#clip-path);}.cls-3{fill:#7bd6ff;}.cls-4{fill:url(#linear-gradient);}.cls-5{fill:#fff59d;}.cls-6{fill:url(#linear-gradient-2);}</style><clipPath id="clip-path"><rect class="cls-1" width="24" height="24"/></clipPath><linearGradient id="linear-gradient" x1="6.78" y1="1063.81" x2="22.76" y2="1080.61" gradientTransform="translate(0 -1064.34)" gradientUnits="userSpaceOnUse"><stop offset="0" stop-color="#ffda57"/><stop offset="1" stop-color="#fccf2e"/></linearGradient><linearGradient id="linear-gradient-2" x1="3.66" y1="1067.72" x2="14.65" y2="1084.54" gradientTransform="translate(0 -1064.34)" gradientUnits="userSpaceOnUse"><stop offset="0" stop-color="#b0eaff"/><stop offset="1" stop-color="#59caff"/></linearGradient></defs><g id="Layer_2" data-name="Layer 2"><g id="Layer_1-2" data-name="Layer 1"><g class="cls-2"><path class="cls-3" d="M7.4,19l-.2-.3c0-.1-.2-.1-.2-.1H7l-.7.4v-.7a.22.22,0,0,0-.2-.2H5.7a.22.22,0,0,0-.2.2V19l-.7-.4c-.1-.1-.2,0-.2.1l-.2.3c-.1.1,0,.2.1.3l.6.4-.6.4a.37.37,0,0,0-.1.3l.2.3a.31.31,0,0,0,.2.1l.7-.4v.7a.22.22,0,0,0,.2.2h.4a.22.22,0,0,0,.2-.2v-.7l.7.4c.1.1.2,0,.2-.1l.2-.3c.1-.1,0-.2-.1-.3l-.6-.4.6-.4C7.4,19.2,7.5,19.1,7.4,19Zm4.3,0-.2-.3c0-.1-.2-.1-.2-.1h0l-.7.4v-.7a.22.22,0,0,0-.2-.2H10a.22.22,0,0,0-.2.2V19l-.7-.4c-.1-.1-.2,0-.2.1l-.2.3c-.1.1,0,.2.1.3l.6.4-.6.4a.37.37,0,0,0-.1.3l.2.3a.31.31,0,0,0,.2.1l.7-.4v.7a.22.22,0,0,0,.2.2h.4a.22.22,0,0,0,.2-.2v-.7l.7.4c.1.1.2,0,.2-.1l.2-.3c.1-.1,0-.2-.1-.3l-.6-.4.6-.4A.37.37,0,0,0,11.7,19Zm4.2,0-.2-.3c0-.1-.2-.1-.2-.1h0l-.7.4v-.7a.22.22,0,0,0-.2-.2h-.4a.22.22,0,0,0-.2.2V19l-.7-.4c-.1-.1-.2,0-.2.1l-.2.3c-.1.1,0,.2.1.3l.6.4-.6.4a.37.37,0,0,0-.1.3l.2.3a.31.31,0,0,0,.2.1l.7-.4v.7a.22.22,0,0,0,.2.2h.4a.22.22,0,0,0,.2-.2v-.7l.7.4c.1.1.2,0,.2-.1l.2-.3c.1-.1,0-.2-.1-.3l-.6-.4.6-.4C15.9,19.2,16,19.1,15.9,19Z"/><path class="cls-4" d="M14.7,14l-2.6,1.9-1-3.1H7.9L9,9.7,6.4,7.8,9,5.9,7.9,2.8h3.2l1-3.1,2.6,1.9L17.3-.3l1,3.1h3.2l-1,3.1,2.6,1.9L20.5,9.7l1,3.1H18.3l-1,3.1Z"/><path class="cls-5" d="M14.6,12.5A4.57,4.57,0,0,0,19.2,8h0a4.57,4.57,0,0,0-4.5-4.6h0a4.55,4.55,0,1,0-.1,9.1Z"/><path class="cls-6" d="M15.8,17.1a3.56,3.56,0,0,0,3.5-3.6A3.63,3.63,0,0,0,16.7,10a2.63,2.63,0,0,0-2.8-2.6,2,2,0,0,0-1.1.3A4.23,4.23,0,0,0,7.3,5.5,4.29,4.29,0,0,0,4.9,8.2a4.54,4.54,0,0,0-4,4.5,4.44,4.44,0,0,0,4.3,4.5l10.6-.1Z"/></g></g></g></svg>