<svg xmlns="http://www.w3.org/2000/svg" xmlns:xlink="http://www.w3.org/1999/xlink" viewBox="0 0 24 24"><defs><style>.cls-1{fill:none;}.cls-2{clip-path:url(#clip-path);}.cls-3{fill:#7bd6ff;}.cls-4{fill:url(#linear-gradient);}.cls-5{fill:#fff59d;}.cls-6{fill:url(#linear-gradient-2);}</style><clipPath id="clip-path"><rect class="cls-1" width="24" height="24"/></clipPath><linearGradient id="linear-gradient" x1="6.69" y1="1063.93" x2="22.67" y2="1080.73" gradientTransform="translate(0 -1064.34)" gradientUnits="userSpaceOnUse"><stop offset="0" stop-color="#ffda57"/><stop offset="1" stop-color="#fccf2e"/></linearGradient><linearGradient id="linear-gradient-2" x1="3.64" y1="1067.78" x2="14.63" y2="1084.6" gradientTransform="translate(0 -1064.34)" gradientUnits="userSpaceOnUse"><stop offset="0" stop-color="#b0eaff"/><stop offset="1" stop-color="#59caff"/></linearGradient></defs><g id="Layer_2" data-name="Layer 2"><g id="Layer_1-2" data-name="Layer 1"><g class="cls-2"><path class="cls-3" d="M11.6,19.1l-.2-.4c0-.1-.2-.1-.2-.1h0l-.7.4v-.7a.22.22,0,0,0-.2-.2H9.9a.22.22,0,0,0-.2.2V19L9,18.6c-.1-.1-.2,0-.2.1l-.2.3c-.1.1,0,.2.1.3l.7.4-.7.4a.37.37,0,0,0-.1.3l.2.3a.31.31,0,0,0,.2.1l.7-.4v.7a.22.22,0,0,0,.2.2h.4a.22.22,0,0,0,.2-.2v-.7l.7.4c.1.1.2,0,.2-.1l.2-.3c.1-.1,0-.2-.1-.3l-.7-.4.7-.4C11.7,19.3,11.7,19.2,11.6,19.1Z"/><path class="cls-4" d="M14.6,14.1,12,16l-1-3.1H7.8L8.9,9.8,6.2,7.9,8.9,6,7.8,2.9H11L12-.2l2.6,1.9L17.2-.2l1,3.1h3.2L20.4,6l2.7,1.9L20.4,9.8l1,3.1H18.2l-1,3.1Z"/><path class="cls-5" d="M14.5,12.6a4.57,4.57,0,0,0,4.6-4.5h0a4.57,4.57,0,0,0-4.5-4.6h0a4.55,4.55,0,1,0-.1,9.1Z"/><path class="cls-6" d="M15.8,17.2a3.56,3.56,0,0,0,3.5-3.6,3.63,3.63,0,0,0-2.6-3.5,2.63,2.63,0,0,0-2.8-2.6,2,2,0,0,0-1.1.3A4.23,4.23,0,0,0,7.3,5.6,4.29,4.29,0,0,0,4.9,8.3a4.54,4.54,0,0,0-4,4.5,4.44,4.44,0,0,0,4.3,4.5l10.6-.1Z"/></g></g></g></svg>