<svg xmlns="http://www.w3.org/2000/svg" xmlns:xlink="http://www.w3.org/1999/xlink" viewBox="0 0 22.14 21.1"><defs><style>.cls-1{fill:#7bd6ff;}.cls-2{fill:url(#linear-gradient);}.cls-3{fill:url(#linear-gradient-2);}</style><linearGradient id="linear-gradient" x1="-197.16" y1="1065.53" x2="-182.6" y2="1080.52" gradientTransform="translate(204 -1064.34)" gradientUnits="userSpaceOnUse"><stop offset="0" stop-color="#d9e9f1"/><stop offset="1" stop-color="#bfd7e2"/></linearGradient><linearGradient id="linear-gradient-2" x1="-2071.24" y1="1067.61" x2="-2060.25" y2="1084.43" gradientTransform="translate(2074 -1064.34)" gradientUnits="userSpaceOnUse"><stop offset="0" stop-color="#b0eaff"/><stop offset="1" stop-color="#59caff"/></linearGradient></defs><g id="Layer_2" data-name="Layer 2"><g id="Layer_1-2" data-name="Layer 1"><path id="Ii" class="cls-1" d="M8.6,18.9l-.2-.3a.37.37,0,0,0-.3-.1l-.7.4v-.7a.22.22,0,0,0-.2-.2H6.8a.22.22,0,0,0-.2.2v.7l-.7-.4c-.1-.1-.2,0-.3.1l-.2.3c-.1.1,0,.2.1.3l.7.4-.7.4c-.1,0-.1.2-.1.2h0l.2.3a.37.37,0,0,0,.3.1l.7-.4v.7a.22.22,0,0,0,.2.2h.4a.22.22,0,0,0,.2-.2v-.7l.7.4c.1.1.2,0,.3-.1l.2-.3a.14.14,0,0,0,0-.2h0l-.7-.4.7-.4a.19.19,0,0,0,0-.3Zm4.3,0-.2-.3a.37.37,0,0,0-.3-.1l-.7.4v-.7a.22.22,0,0,0-.2-.2h-.4a.22.22,0,0,0-.2.2v.7l-.7-.4c-.1-.1-.2,0-.3.1l-.2.3c-.1.1,0,.2.1.3l.7.4-.7.4c-.1,0-.1.2-.1.2h0l.2.3a.37.37,0,0,0,.3.1l.7-.4v.7a.22.22,0,0,0,.2.2h.4a.22.22,0,0,0,.2-.2v-.7l.7.4c.1.1.2,0,.3-.1l.2-.3a.14.14,0,0,0,0-.2h0l-.7-.4.7-.4v-.3Z"/><path id="JW" class="cls-2" d="M21.9,9.7c-.1-.1-.3,0-.4,0a6.39,6.39,0,0,1-1.9.8,6.56,6.56,0,0,1-2,.1,5.52,5.52,0,0,1-3.7-2.2,5.72,5.72,0,0,1-1.1-4.2,4.78,4.78,0,0,1,.6-1.8A4.43,4.43,0,0,1,14.6.9a.48.48,0,0,0,0-.7.76.76,0,0,0-.4-.2A8.53,8.53,0,0,0,9.7,2.1,7.42,7.42,0,0,0,7.5,6.5a7.69,7.69,0,0,0,1.4,5.7,7.71,7.71,0,0,0,5,3,7.81,7.81,0,0,0,8.2-4.8.57.57,0,0,0-.2-.7Z"/><path id="Ir" class="cls-3" d="M14.9,17a3.56,3.56,0,0,0,3.5-3.6,3.63,3.63,0,0,0-2.6-3.5A2.63,2.63,0,0,0,13,7.3a2,2,0,0,0-1.1.3A4.23,4.23,0,0,0,6.4,5.4,4.29,4.29,0,0,0,4,8.1a4.54,4.54,0,0,0-4,4.5,4.44,4.44,0,0,0,4.3,4.5L14.9,17Z"/></g></g></svg>