<svg xmlns="http://www.w3.org/2000/svg" xmlns:xlink="http://www.w3.org/1999/xlink" viewBox="0 0 24 24"><defs><style>.cls-1{fill:none;}.cls-2{clip-path:url(#clip-path);}.cls-3{fill:url(#linear-gradient);}.cls-4{fill:#fff59d;}.cls-5{fill:url(#linear-gradient-2);}.cls-6{fill-rule:evenodd;fill:url(#linear-gradient-3);}.cls-7{fill:#7bd6ff;}</style><clipPath id="clip-path"><rect class="cls-1" width="24" height="24"/></clipPath><linearGradient id="linear-gradient" x1="6.71" y1="1063.84" x2="22.69" y2="1080.64" gradientTransform="translate(0 -1064.34)" gradientUnits="userSpaceOnUse"><stop offset="0" stop-color="#ffda57"/><stop offset="1" stop-color="#fccf2e"/></linearGradient><linearGradient id="linear-gradient-2" x1="3.65" y1="1067.7" x2="14.64" y2="1084.52" gradientTransform="translate(0 -1064.34)" gradientUnits="userSpaceOnUse"><stop offset="0" stop-color="#b0eaff"/><stop offset="1" stop-color="#59caff"/></linearGradient><linearGradient id="linear-gradient-3" x1="12.3" y1="1072.96" x2="12.3" y2="1086.29" gradientTransform="translate(0 -1064.34)" gradientUnits="userSpaceOnUse"><stop offset="0" stop-color="#fff733"/><stop offset="1" stop-color="#ffd600"/></linearGradient></defs><g id="Layer_2" data-name="Layer 2"><g id="Layer_1-2" data-name="Layer 1"><g class="cls-2"><path class="cls-3" d="M14.6,14,12,15.9l-1-3.1H7.8L8.9,9.7,6.3,7.8,8.9,5.9,7.8,2.8H11L12-.3l2.6,1.9L17.2-.3l1,3.1h3.2l-1,3.1L23,7.8,20.4,9.7l1,3.1H18.2l-1,3.1Z"/><path class="cls-4" d="M14.5,12.5A4.57,4.57,0,0,0,19.1,8h0a4.57,4.57,0,0,0-4.5-4.6h0a4.55,4.55,0,1,0-.1,9.1Z"/><path class="cls-5" d="M15.8,17.1a3.56,3.56,0,0,0,3.5-3.6A3.63,3.63,0,0,0,16.7,10a2.63,2.63,0,0,0-2.8-2.6,2,2,0,0,0-1.1.3A4.23,4.23,0,0,0,7.3,5.5,4.29,4.29,0,0,0,4.9,8.2a4.54,4.54,0,0,0-4,4.5,4.44,4.44,0,0,0,4.3,4.5l10.6-.1Z"/><path class="cls-6" d="M10.4,8.6,8.1,15.4h3.6L9.5,22l7-9.3-3.9-.1,1.3-3.8Z"/><path class="cls-7" d="M7.7,19.3l-.2-.4c-.1-.1-.2-.2-.3-.1l-.9.5v-.9a.22.22,0,0,0-.2-.2H5.6a.22.22,0,0,0-.2.2v.9l-.9-.5a.19.19,0,0,0-.3.1l-.2.4a.19.19,0,0,0,.1.3l.9.5-.9.5c-.1.1-.2.2-.1.3l.2.4c.1.1.2.2.3.1l.9-.5v.9a.22.22,0,0,0,.2.2h.5a.22.22,0,0,0,.2-.2v-.9l.9.5a.19.19,0,0,0,.3-.1l.2-.4a.19.19,0,0,0-.1-.3l-.9-.5.9-.5C7.8,19.5,7.8,19.4,7.7,19.3Z"/></g></g></g></svg>