<svg xmlns="http://www.w3.org/2000/svg" xmlns:xlink="http://www.w3.org/1999/xlink" viewBox="0 0 24 24"><defs><style>.cls-1{fill:none;}.cls-2{clip-path:url(#clip-path);}.cls-3{fill:url(#linear-gradient);}.cls-4{fill:url(#linear-gradient-2);}.cls-5{fill-rule:evenodd;fill:url(#linear-gradient-3);}.cls-6{fill:#7bd6ff;}</style><clipPath id="clip-path"><rect class="cls-1" width="24" height="24"/></clipPath><linearGradient id="linear-gradient" x1="7.62" y1="1065.81" x2="22.18" y2="1080.8" gradientTransform="translate(0 -1064.34)" gradientUnits="userSpaceOnUse"><stop offset="0" stop-color="#d9e9f1"/><stop offset="1" stop-color="#bfd7e2"/></linearGradient><linearGradient id="linear-gradient-2" x1="3.64" y1="1067.78" x2="14.63" y2="1084.61" gradientTransform="translate(0 -1064.34)" gradientUnits="userSpaceOnUse"><stop offset="0" stop-color="#b0eaff"/><stop offset="1" stop-color="#59caff"/></linearGradient><linearGradient id="linear-gradient-3" x1="12.3" y1="1073.04" x2="12.3" y2="1086.37" gradientTransform="translate(0 -1064.34)" gradientUnits="userSpaceOnUse"><stop offset="0" stop-color="#fff733"/><stop offset="1" stop-color="#ffd600"/></linearGradient></defs><g id="Layer_2" data-name="Layer 2"><g id="Layer_1-2" data-name="Layer 1"><g class="cls-2"><path class="cls-3" d="M22.7,9.9c-.1-.1-.3,0-.5,0a6.39,6.39,0,0,1-1.9.8,6.56,6.56,0,0,1-2,.1,5.52,5.52,0,0,1-3.7-2.2,5.72,5.72,0,0,1-1.1-4.2,4.78,4.78,0,0,1,.6-1.8,4.43,4.43,0,0,1,1.2-1.5.48.48,0,0,0,0-.7.76.76,0,0,0-.4-.2,8.53,8.53,0,0,0-4.5,2.1A7.42,7.42,0,0,0,8.2,6.7a7.61,7.61,0,0,0,6.4,8.7,7.81,7.81,0,0,0,8.2-4.8c.3-.3.2-.6-.1-.7Z"/><path class="cls-4" d="M15.8,17.2a3.56,3.56,0,0,0,3.5-3.6,3.63,3.63,0,0,0-2.6-3.5,2.63,2.63,0,0,0-2.8-2.6,2,2,0,0,0-1.1.3A4.23,4.23,0,0,0,7.3,5.6,4.29,4.29,0,0,0,4.9,8.3a4.54,4.54,0,0,0-4,4.5,4.44,4.44,0,0,0,4.3,4.5l10.6-.1Z"/><path class="cls-5" d="M10.4,8.7,8.1,15.5h3.6L9.5,22.1l7-9.3-3.9-.1,1.3-3.8Z"/><path class="cls-6" d="M7.7,19.4,7.5,19c-.1-.1-.2-.2-.3-.1l-.9.5v-.9a.22.22,0,0,0-.2-.2H5.6a.22.22,0,0,0-.2.2v.9l-.9-.5a.19.19,0,0,0-.3.1l-.2.4a.19.19,0,0,0,.1.3l.9.5-.9.5A.37.37,0,0,0,4,21l.2.4c.1.1.2.2.3.1l.9-.5v.9a.22.22,0,0,0,.2.2h.5a.22.22,0,0,0,.2-.2V21l.9.5a.19.19,0,0,0,.3-.1l.2-.4a.19.19,0,0,0-.1-.3h0l-.9-.5.9-.5c.2-.1.2-.2.1-.3Z"/></g></g></g></svg>