<?xml version="1.0" encoding="UTF-8"?><svg id="Layer_2" xmlns="http://www.w3.org/2000/svg" xmlns:xlink="http://www.w3.org/1999/xlink" viewBox="0 0 22.7 18.2"><defs><style>.cls-1{fill:url(#linear-gradient-2);}.cls-2{fill:url(#linear-gradient-3);fill-opacity:.2;}.cls-3{fill:url(#linear-gradient);}.cls-4{fill:url(#linear-gradient-4);}</style><linearGradient id="linear-gradient" x1="1.8" y1="1065.54" x2="16.36" y2="1080.53" gradientTransform="translate(0 -1064.34)" gradientUnits="userSpaceOnUse"><stop offset="0" stop-color="#d9e9f1"/><stop offset="1" stop-color="#bfd7e2"/></linearGradient><linearGradient id="linear-gradient-2" x1="8.71" y1="1065.51" x2="18.48" y2="1080.46" gradientTransform="translate(0 -1064.34)" gradientUnits="userSpaceOnUse"><stop offset="0" stop-color="#71d1ff"/><stop offset="1" stop-color="#40c2ff"/></linearGradient><linearGradient id="linear-gradient-3" x1="14.55" y1="1067.05" x2="14.55" y2="1077.72" gradientTransform="translate(0 -1064.34)" gradientUnits="userSpaceOnUse"><stop offset="0" stop-color="#0d4b69" stop-opacity="0"/><stop offset="1" stop-color="#0d4b69" stop-opacity=".5"/></linearGradient><linearGradient id="linear-gradient-4" x1="2.76" y1="1068.76" x2="13.75" y2="1085.59" gradientTransform="translate(0 -1064.34)" gradientUnits="userSpaceOnUse"><stop offset="0" stop-color="#b0eaff"/><stop offset="1" stop-color="#59caff"/></linearGradient></defs><g id="Layer_1-2"><path id="JS" class="cls-3" d="M16.8,9.7c-.1-.1-.3,0-.4,0-.6,.4-1.2,.6-1.9,.8-.6,.1-1.3,.2-2,.1-1.5-.2-2.8-1-3.7-2.2s-1.3-2.7-1.1-4.2c.1-.7,.3-1.3,.6-1.8,.3-.6,.7-1.1,1.2-1.5,.2-.2,.2-.5,0-.7-.1-.1-.3-.2-.4-.2-1.7,.2-3.2,1-4.4,2.1-1.2,1.2-2,2.7-2.2,4.4-.3,2,.2,4.1,1.4,5.7,1.2,1.6,3,2.7,5,3,1.7,.2,3.4-.1,4.9-1s2.7-2.2,3.3-3.8c.1-.3-.1-.6-.3-.7Z"/><path id="JT" class="cls-1" d="M20.1,13.4c1.4-.2,2.6-1.4,2.6-2.9,0-1.4-.9-2.5-2.2-2.8-.4-2.8-2.7-5-5.5-5-2,0-3.7,1.1-4.7,2.7h-.1c-2.1,0-3.8,1.8-3.8,4s1.6,3.8,3.6,4h10.1Z"/><path id="JT-2" class="cls-2" d="M20.1,13.4c1.4-.2,2.6-1.4,2.6-2.9,0-1.4-.9-2.5-2.2-2.8-.4-2.8-2.7-5-5.5-5-2,0-3.7,1.1-4.7,2.7h-.1c-2.1,0-3.8,1.8-3.8,4s1.6,3.8,3.6,4h10.1Z"/><path id="JU" class="cls-4" d="M14.9,18.2c1.9,0,3.5-1.6,3.5-3.6,0-1.6-1-3-2.6-3.5,0-1.5-1.2-2.6-2.7-2.6-.4,0-.8,.1-1.2,.3-.7-1.6-2.2-2.6-3.9-2.6-1.9,0-3.5,1.3-4,3-2.3,.3-4,2.2-4,4.5s1.9,4.5,4.3,4.5H14.9Z"/></g></svg>