<svg xmlns="http://www.w3.org/2000/svg" xmlns:xlink="http://www.w3.org/1999/xlink" viewBox="0 0 24 24"><defs><style>.cls-1{fill:none;}.cls-2{clip-path:url(#clip-path);}.cls-3{fill:url(#linear-gradient);}.cls-4{fill:#fff59d;}.cls-5{fill:url(#linear-gradient-2);}.cls-6{fill-opacity:0.2;fill:url(#linear-gradient-3);}.cls-7{fill:url(#linear-gradient-4);}</style><clipPath id="clip-path"><rect class="cls-1" width="24" height="24"/></clipPath><linearGradient id="linear-gradient" x1="1.13" y1="1066.76" x2="17.11" y2="1083.56" gradientTransform="translate(0 -1064.34)" gradientUnits="userSpaceOnUse"><stop offset="0" stop-color="#ffda57"/><stop offset="1" stop-color="#fccf2e"/></linearGradient><linearGradient id="linear-gradient-2" x1="9.42" y1="1068.51" x2="19.18" y2="1083.46" gradientTransform="translate(0 -1064.34)" gradientUnits="userSpaceOnUse"><stop offset="0" stop-color="#71d1ff"/><stop offset="1" stop-color="#40c2ff"/></linearGradient><linearGradient id="linear-gradient-3" x1="15.25" y1="1070.04" x2="15.25" y2="1080.71" gradientTransform="translate(0 -1064.34)" gradientUnits="userSpaceOnUse"><stop offset="0" stop-color="#0d4b69" stop-opacity="0"/><stop offset="1" stop-color="#0d4b69" stop-opacity="0.5"/></linearGradient><linearGradient id="linear-gradient-4" x1="3.44" y1="1071.78" x2="14.42" y2="1088.6" gradientTransform="translate(0 -1064.34)" gradientUnits="userSpaceOnUse"><stop offset="0" stop-color="#b0eaff"/><stop offset="1" stop-color="#59caff"/></linearGradient></defs><g id="Layer_2" data-name="Layer 2"><g id="Layer_1-2" data-name="Layer 1"><g class="cls-2"><path class="cls-3" d="M9.1,16.9l-2.6,2-1-3.1H2.3l1-3.1L.7,10.9,3.4,9l-1-3.1H5.6l1-3.1L9.2,4.7l2.6-1.9,1,3.1H16L15,9l2.7,1.9L15,12.8l1,3.1H12.8l-1,3.1C11.7,18.9,9.1,16.9,9.1,16.9Z"/><path class="cls-4" d="M9,15.4a4.59,4.59,0,0,0,4.6-4.6A4.53,4.53,0,0,0,9,6.2a4.53,4.53,0,0,0-4.6,4.6A4.59,4.59,0,0,0,9,15.4Z"/><path id="IM" class="cls-5" d="M20.8,16.4a3,3,0,0,0,2.6-2.9,2.8,2.8,0,0,0-2.2-2.8,5.61,5.61,0,0,0-5.5-5A5.55,5.55,0,0,0,11,8.4h-.1a3.91,3.91,0,0,0-3.8,4,4,4,0,0,0,3.6,4Z"/><path id="IM-2" data-name="IM" class="cls-6" d="M20.8,16.4a3,3,0,0,0,2.6-2.9,2.8,2.8,0,0,0-2.2-2.8,5.61,5.61,0,0,0-5.5-5A5.55,5.55,0,0,0,11,8.4h-.1a3.91,3.91,0,0,0-3.8,4,4,4,0,0,0,3.6,4Z"/><path class="cls-7" d="M15.6,21.2a3.56,3.56,0,0,0,3.5-3.6,3.63,3.63,0,0,0-2.6-3.5,2.63,2.63,0,0,0-2.8-2.6,2,2,0,0,0-1.1.3A4.23,4.23,0,0,0,7.1,9.6a4.29,4.29,0,0,0-2.4,2.7,4.54,4.54,0,0,0-4,4.5A4.44,4.44,0,0,0,5,21.3H15.6Z"/></g></g></g></svg>