<svg xmlns="http://www.w3.org/2000/svg" xmlns:xlink="http://www.w3.org/1999/xlink" viewBox="0 0 24 24"><defs><style>.cls-1{fill:none;}.cls-2{clip-path:url(#clip-path);}.cls-3{fill:#7bd6ff;fill-rule:evenodd;}.cls-4{fill:url(#linear-gradient);}.cls-5{fill:#fff59d;}.cls-6{fill:url(#linear-gradient-2);}.cls-7{fill-opacity:0.2;fill:url(#linear-gradient-3);}.cls-8{fill:url(#linear-gradient-4);}</style><clipPath id="clip-path"><rect class="cls-1" width="24" height="24"/></clipPath><linearGradient id="linear-gradient" x1="1.11" y1="1063.85" x2="17.09" y2="1080.65" gradientTransform="translate(0 -1064.34)" gradientUnits="userSpaceOnUse"><stop offset="0" stop-color="#ffda57"/><stop offset="1" stop-color="#fccf2e"/></linearGradient><linearGradient id="linear-gradient-2" x1="9.42" y1="1064.92" x2="19.19" y2="1079.87" gradientTransform="translate(0 -1064.34)" gradientUnits="userSpaceOnUse"><stop offset="0" stop-color="#71d1ff"/><stop offset="1" stop-color="#40c2ff"/></linearGradient><linearGradient id="linear-gradient-3" x1="15.25" y1="1066.46" x2="15.25" y2="1077.13" gradientTransform="translate(0 -1064.34)" gradientUnits="userSpaceOnUse"><stop offset="0" stop-color="#0d4b69" stop-opacity="0"/><stop offset="1" stop-color="#0d4b69" stop-opacity="0.5"/></linearGradient><linearGradient id="linear-gradient-4" x1="3.44" y1="1067.68" x2="14.43" y2="1084.51" gradientTransform="translate(0 -1064.34)" gradientUnits="userSpaceOnUse"><stop offset="0" stop-color="#b0eaff"/><stop offset="1" stop-color="#59caff"/></linearGradient></defs><g id="Layer_2" data-name="Layer 2"><g id="Layer_1-2" data-name="Layer 1"><g class="cls-2"><path class="cls-3" d="M12.4,19.3l-1.2,2.1a.55.55,0,0,1-.6.4.68.68,0,0,1-.7-.7.37.37,0,0,1,.1-.3l1.2-2.1a.81.81,0,0,1,.9-.3h0a.61.61,0,0,1,.3.9ZM6.6,23.6a.81.81,0,0,1-.9.3.81.81,0,0,1-.3-.9h0l2.4-4.3a.81.81,0,0,1,.9-.3h0a.81.81,0,0,1,.3.9H9L6.6,23.6Z"/><path class="cls-4" d="M9,14,6.4,15.9l-1-3.1H2.2l1-3.1L.5,7.8,3.2,5.9l-1-3.1H5.4l1-3.1L9,1.6,11.6-.3l1,3.1h3.2l-1,3.1,2.7,1.9-2.7,2,1,3.1H12.6l-1,3.1Z"/><path id="IO" class="cls-5" d="M8.9,12.5a4.6,4.6,0,0,0,0-9.2h0A4.59,4.59,0,0,0,4.3,7.9,4.65,4.65,0,0,0,8.9,12.5Z"/><path id="IP" class="cls-6" d="M20.8,12.8a3,3,0,0,0,2.6-2.9,2.8,2.8,0,0,0-2.2-2.8,5.61,5.61,0,0,0-5.5-5A5.55,5.55,0,0,0,11,4.8h-.1a3.91,3.91,0,0,0-3.8,4,4,4,0,0,0,3.6,4Z"/><path id="IP-2" data-name="IP" class="cls-7" d="M20.8,12.8a3,3,0,0,0,2.6-2.9,2.8,2.8,0,0,0-2.2-2.8,5.61,5.61,0,0,0-5.5-5A5.55,5.55,0,0,0,11,4.8h-.1a3.91,3.91,0,0,0-3.8,4,4,4,0,0,0,3.6,4Z"/><path id="IQ" class="cls-8" d="M15.6,17.1a3.56,3.56,0,0,0,3.5-3.6A3.63,3.63,0,0,0,16.5,10a2.63,2.63,0,0,0-2.8-2.6,2,2,0,0,0-1.1.3A4.23,4.23,0,0,0,7.1,5.5,4.29,4.29,0,0,0,4.7,8.2a4.54,4.54,0,0,0-4,4.5A4.44,4.44,0,0,0,5,17.2l10.6-.1Z"/></g></g></g></svg>