<?xml version="1.0" encoding="UTF-8"?><svg id="Layer_2" xmlns="http://www.w3.org/2000/svg" xmlns:xlink="http://www.w3.org/1999/xlink" viewBox="0 0 24 24"><defs><style>.cls-1{fill:url(#linear-gradient-2);}.cls-2{fill:url(#linear-gradient-3);fill-opacity:.2;}.cls-3{fill:url(#linear-gradient-5);}.cls-3,.cls-4{fill-rule:evenodd;}.cls-4{fill:#7bd6ff;}.cls-5{clip-path:url(#clippath);}.cls-6{fill:none;}.cls-7{fill:url(#linear-gradient);}.cls-8{fill:url(#linear-gradient-4);}</style><clipPath id="clippath"><rect class="cls-6" width="24" height="24"/></clipPath><linearGradient id="linear-gradient" x1="2.41" y1="1065.75" x2="16.97" y2="1080.74" gradientTransform="translate(0 -1064.34)" gradientUnits="userSpaceOnUse"><stop offset="0" stop-color="#d9e9f1"/><stop offset="1" stop-color="#bfd7e2"/></linearGradient><linearGradient id="linear-gradient-2" x1="9.4" y1="1064.99" x2="19.17" y2="1079.93" gradientTransform="translate(0 -1064.34)" gradientUnits="userSpaceOnUse"><stop offset="0" stop-color="#71d1ff"/><stop offset="1" stop-color="#40c2ff"/></linearGradient><linearGradient id="linear-gradient-3" x1="15.25" y1="1066.54" x2="15.25" y2="1077.21" gradientTransform="translate(0 -1064.34)" gradientUnits="userSpaceOnUse"><stop offset="0" stop-color="#0d4b69" stop-opacity="0"/><stop offset="1" stop-color="#0d4b69" stop-opacity=".5"/></linearGradient><linearGradient id="linear-gradient-4" x1="3.37" y1="1067.78" x2="14.36" y2="1084.6" gradientTransform="translate(0 -1064.34)" gradientUnits="userSpaceOnUse"><stop offset="0" stop-color="#b0eaff"/><stop offset="1" stop-color="#59caff"/></linearGradient><linearGradient id="linear-gradient-5" x1="12" y1="1073.06" x2="12" y2="1086.39" gradientTransform="translate(0 -1064.34)" gradientUnits="userSpaceOnUse"><stop offset="0" stop-color="#fff733"/><stop offset="1" stop-color="#ffd600"/></linearGradient></defs><g id="Layer_1-2"><g class="cls-5"><g><path class="cls-7" d="M17.4,9.9c-.1-.1-.3,0-.4,0-.6,.4-1.2,.6-1.9,.8-.6,.1-1.3,.2-2,.1-1.5-.2-2.8-1-3.7-2.2-.9-1.2-1.3-2.7-1.1-4.2,.1-.7,.3-1.3,.6-1.8,.3-.6,.7-1.1,1.2-1.5,.2-.2,.2-.5,0-.7-.1-.1-.3-.2-.4-.2-1.7,.2-3.2,1-4.4,2.1-1.2,1.2-2,2.7-2.2,4.4-.3,2,.2,4.1,1.4,5.7,1.2,1.6,3,2.7,5,3,1.7,.2,3.4-.1,4.9-1s2.7-2.2,3.3-3.8c.1-.3,0-.6-.3-.7Z"/><path class="cls-1" d="M20.8,12.9c1.4-.2,2.6-1.4,2.6-2.9,0-1.4-.9-2.5-2.2-2.8-.4-2.8-2.7-5-5.5-5-2,0-3.7,1.1-4.7,2.7h-.1c-2.1,0-3.8,1.8-3.8,4s1.6,3.8,3.6,4h10.1Z"/><path class="cls-2" d="M20.8,12.9c1.4-.2,2.6-1.4,2.6-2.9,0-1.4-.9-2.5-2.2-2.8-.4-2.8-2.7-5-5.5-5-2,0-3.7,1.1-4.7,2.7h-.1c-2.1,0-3.8,1.8-3.8,4s1.6,3.8,3.6,4h10.1Z"/><path class="cls-8" d="M15.5,17.2c1.9,0,3.5-1.6,3.5-3.6,0-1.6-1-3-2.6-3.5,0-1.5-1.2-2.6-2.7-2.6-.4,0-.8,.1-1.2,.3-.7-1.6-2.2-2.6-3.9-2.6-1.9,0-3.5,1.3-4,3-2.3,.3-4,2.2-4,4.5s1.9,4.5,4.3,4.5H15.5Z"/><path class="cls-3" d="M10.1,8.7l-2.3,6.8h3.6l-2.2,6.6,7-9.3-3.9-.1,1.3-3.8-3.5-.2h0Z"/><path class="cls-4" d="M7.7,19.4l-1.2,2.1c-.2,.3-.6,.4-.9,.3-.3-.2-.4-.6-.3-.9h0l1.2-2.1c.2-.3,.6-.4,.9-.3,.4,.2,.5,.6,.3,.9ZM1.9,23.7c-.2,.3-.6,.4-.9,.3-.3-.2-.4-.6-.3-.9H.7l2.4-4.3c.2-.3,.6-.4,1-.2,.3,.2,.4,.6,.2,.9l-2.4,4.2h0Z"/></g></g></g></svg>