<svg xmlns="http://www.w3.org/2000/svg" xmlns:xlink="http://www.w3.org/1999/xlink" viewBox="0 0 24 24"><defs><style>.cls-1{fill:none;}.cls-2{clip-path:url(#clip-path);}.cls-3{fill:#7bd6ff;fill-rule:evenodd;}.cls-4{fill:url(#linear-gradient);}.cls-5{fill:#fff59d;}.cls-6{fill:url(#linear-gradient-2);}.cls-7{fill-opacity:0.2;fill:url(#linear-gradient-3);}.cls-8{fill:url(#linear-gradient-4);}</style><clipPath id="clip-path"><rect class="cls-1" width="24" height="24"/></clipPath><linearGradient id="linear-gradient" x1="1.1" y1="1063.83" x2="17.08" y2="1080.63" gradientTransform="translate(0 -1064.34)" gradientUnits="userSpaceOnUse"><stop offset="0" stop-color="#ffda57"/><stop offset="1" stop-color="#fccf2e"/></linearGradient><linearGradient id="linear-gradient-2" x1="9.41" y1="1064.91" x2="19.18" y2="1079.85" gradientTransform="translate(0 -1064.34)" gradientUnits="userSpaceOnUse"><stop offset="0" stop-color="#71d1ff"/><stop offset="1" stop-color="#40c2ff"/></linearGradient><linearGradient id="linear-gradient-3" x1="15.25" y1="1066.47" x2="15.25" y2="1077.13" gradientTransform="translate(0 -1064.34)" gradientUnits="userSpaceOnUse"><stop offset="0" stop-color="#0d4b69" stop-opacity="0"/><stop offset="1" stop-color="#0d4b69" stop-opacity="0.5"/></linearGradient><linearGradient id="linear-gradient-4" x1="3.38" y1="1067.7" x2="14.37" y2="1084.52" gradientTransform="translate(0 -1064.34)" gradientUnits="userSpaceOnUse"><stop offset="0" stop-color="#b0eaff"/><stop offset="1" stop-color="#59caff"/></linearGradient></defs><g id="Layer_2" data-name="Layer 2"><g id="Layer_1-2" data-name="Layer 1"><g class="cls-2"><path id="IW" class="cls-3" d="M7.4,19.3,5,23.6a.81.81,0,0,1-.9.3.81.81,0,0,1-.3-.9h0l2.4-4.3a.81.81,0,0,1,.9-.3A.61.61,0,0,1,7.4,19.3Zm3.6,0L8.6,23.6a.71.71,0,0,1-.6.3.37.37,0,0,1-.3-.1.69.69,0,0,1-.3-.9h0l2.4-4.3a.81.81,0,0,1,.9-.3A.73.73,0,0,1,11,19.3Zm-7.6-.9a.61.61,0,0,0-.9.3h0L.1,23a.59.59,0,0,0,.3.9.59.59,0,0,0,.9-.3l2.4-4.3A.61.61,0,0,0,3.4,18.4Zm15,.9L16,23.6a.81.81,0,0,1-.9.3.81.81,0,0,1-.3-.9h0l2.4-4.3a.81.81,0,0,1,.9-.3h0A.61.61,0,0,1,18.4,19.3Zm-6.1,4.3a.81.81,0,0,1-.9.3.81.81,0,0,1-.3-.9h0l2.4-4.3a.75.75,0,0,1,1-.2.65.65,0,0,1,.2.9Z"/><path class="cls-4" d="M9,14,6.4,15.9l-1-3.1H2.2l1-3.1L.5,7.8,3.2,5.9l-1-3.1H5.4l1-3.1L9,1.6,11.6-.3l1,3.1h3.2L14.7,5.9l2.7,1.9L14.7,9.7l1.1,3.1H12.6l-1,3.1Z"/><path class="cls-5" d="M8.9,12.5A4.55,4.55,0,1,0,9,3.4H8.9a4.55,4.55,0,1,0,0,9.1Z"/><path class="cls-6" d="M20.8,12.8a2.92,2.92,0,0,0,2.6-2.9,2.8,2.8,0,0,0-2.2-2.8,5.61,5.61,0,0,0-5.5-5A5.42,5.42,0,0,0,11,4.8h-.1a3.91,3.91,0,0,0-3.8,4,4,4,0,0,0,3.6,4Z"/><path class="cls-7" d="M20.8,12.8a2.92,2.92,0,0,0,2.6-2.9,2.8,2.8,0,0,0-2.2-2.8,5.61,5.61,0,0,0-5.5-5A5.42,5.42,0,0,0,11,4.8h-.1a3.91,3.91,0,0,0-3.8,4,4,4,0,0,0,3.6,4Z"/><path class="cls-8" d="M15.5,17.1A3.56,3.56,0,0,0,19,13.5,3.63,3.63,0,0,0,16.4,10a2.61,2.61,0,0,0-2.7-2.6,2.66,2.66,0,0,0-1.2.3,4.19,4.19,0,0,0-7.9.4,4.54,4.54,0,0,0-4,4.5,4.44,4.44,0,0,0,4.3,4.5Z"/></g></g></g></svg>