<svg xmlns="http://www.w3.org/2000/svg" xmlns:xlink="http://www.w3.org/1999/xlink" viewBox="0 0 24 24"><defs><style>.cls-1{fill:none;}.cls-2{clip-path:url(#clip-path);}.cls-3,.cls-4{fill:#7bd6ff;}.cls-4{fill-rule:evenodd;}.cls-5{fill:url(#linear-gradient);}.cls-6{fill:#fff59d;}.cls-7{fill:url(#linear-gradient-2);}.cls-8{fill-opacity:0.2;fill:url(#linear-gradient-3);}.cls-9{fill:url(#linear-gradient-4);}</style><clipPath id="clip-path"><rect class="cls-1" width="24" height="24"/></clipPath><linearGradient id="linear-gradient" x1="1.11" y1="1063.85" x2="17.09" y2="1080.65" gradientTransform="translate(0 -1064.34)" gradientUnits="userSpaceOnUse"><stop offset="0" stop-color="#ffda57"/><stop offset="1" stop-color="#fccf2e"/></linearGradient><linearGradient id="linear-gradient-2" x1="9.42" y1="1064.92" x2="19.19" y2="1079.87" gradientTransform="translate(0 -1064.34)" gradientUnits="userSpaceOnUse"><stop offset="0" stop-color="#71d1ff"/><stop offset="1" stop-color="#40c2ff"/></linearGradient><linearGradient id="linear-gradient-3" x1="15.25" y1="1066.47" x2="15.25" y2="1077.14" gradientTransform="translate(0 -1064.34)" gradientUnits="userSpaceOnUse"><stop offset="0" stop-color="#0d4b69" stop-opacity="0"/><stop offset="1" stop-color="#0d4b69" stop-opacity="0.5"/></linearGradient><linearGradient id="linear-gradient-4" x1="3.33" y1="1067.76" x2="14.31" y2="1084.58" gradientTransform="translate(0 -1064.34)" gradientUnits="userSpaceOnUse"><stop offset="0" stop-color="#b0eaff"/><stop offset="1" stop-color="#59caff"/></linearGradient></defs><g id="Layer_2" data-name="Layer 2"><g id="Layer_1-2" data-name="Layer 1"><g class="cls-2"><path class="cls-3" d="M15.6,19.4l-.2-.4a.37.37,0,0,0-.3-.1l-.8.5v-.8a.22.22,0,0,0-.2-.2h-.5a.22.22,0,0,0-.2.2v.8l-.8-.5c-.1-.1-.2,0-.3.1l-.2.4c-.1.1,0,.2.1.3l.8.5-.8.5a.37.37,0,0,0-.1.3l.2.4a.37.37,0,0,0,.3.1l.8-.5v.8a.22.22,0,0,0,.2.2h.5a.22.22,0,0,0,.2-.2V21l.8.5c.1.1.2,0,.3-.1l.2-.4c.1-.1,0-.2-.1-.3l-.8-.5.8-.5C15.7,19.7,15.7,19.6,15.6,19.4Z"/><path class="cls-4" d="M9.8,19.3,8.6,21.4a.81.81,0,0,1-.9.3.81.81,0,0,1-.3-.9h0l1.2-2.1a.81.81,0,0,1,.9-.3h0a.81.81,0,0,1,.3.9Zm-3.4,0L3.9,23.6a.81.81,0,0,1-.9.3.81.81,0,0,1-.3-.9h0l2.5-4.3a.81.81,0,0,1,.9-.3h0a.61.61,0,0,1,.3.9Z"/><path class="cls-5" d="M9,14,6.4,15.9l-1-3.1H2.2l1-3.1L.5,7.8,3.2,5.9l-1-3.1H5.4l1-3.1L9,1.6,11.6-.3l1,3.1h3.2l-1,3.1,2.7,1.9L14.8,9.7l1,3.1H12.6l-1,3.1Z"/><path class="cls-6" d="M8.9,12.5a4.6,4.6,0,0,0,0-9.2h0A4.59,4.59,0,0,0,4.3,7.9,4.65,4.65,0,0,0,8.9,12.5Z"/><path class="cls-7" d="M20.8,12.8a3,3,0,0,0,2.6-2.9,2.8,2.8,0,0,0-2.2-2.8,5.61,5.61,0,0,0-5.5-5A5.55,5.55,0,0,0,11,4.8h-.1a3.91,3.91,0,0,0-3.8,4,4,4,0,0,0,3.6,4Z"/><path class="cls-8" d="M20.8,12.8a3,3,0,0,0,2.6-2.9,2.8,2.8,0,0,0-2.2-2.8,5.61,5.61,0,0,0-5.5-5A5.55,5.55,0,0,0,11,4.8h-.1a3.91,3.91,0,0,0-3.8,4,4,4,0,0,0,3.6,4Z"/><path class="cls-9" d="M15.5,17.2A3.56,3.56,0,0,0,19,13.6a3.63,3.63,0,0,0-2.6-3.5,2.63,2.63,0,0,0-2.8-2.6,2,2,0,0,0-1.1.3A4.23,4.23,0,0,0,7,5.6,4.29,4.29,0,0,0,4.6,8.3a4.54,4.54,0,0,0-4,4.5,4.44,4.44,0,0,0,4.3,4.5l10.6-.1Z"/></g></g></g></svg>