<svg xmlns="http://www.w3.org/2000/svg" xmlns:xlink="http://www.w3.org/1999/xlink" viewBox="0 0 23.04 23.84"><defs><style>.cls-1,.cls-2{fill:#7bd6ff;}.cls-2{fill-rule:evenodd;}.cls-3{fill:url(#linear-gradient);}.cls-4{fill:url(#linear-gradient-2);}.cls-5{fill-opacity:0.2;fill:url(#linear-gradient-3);}.cls-6{fill:url(#linear-gradient-4);}</style><linearGradient id="linear-gradient" x1="-167.88" y1="1065.52" x2="-153.32" y2="1080.51" gradientTransform="translate(170 -1064.34)" gradientUnits="userSpaceOnUse"><stop offset="0" stop-color="#d9e9f1"/><stop offset="1" stop-color="#bfd7e2"/></linearGradient><linearGradient id="linear-gradient-2" x1="-194.95" y1="1068.32" x2="-185.18" y2="1083.27" gradientTransform="translate(204 -1067.85)" gradientUnits="userSpaceOnUse"><stop offset="0" stop-color="#71d1ff"/><stop offset="1" stop-color="#40c2ff"/></linearGradient><linearGradient id="linear-gradient-3" x1="-189.11" y1="1069.85" x2="-189.11" y2="1080.52" gradientTransform="translate(204 -1067.85)" gradientUnits="userSpaceOnUse"><stop offset="0" stop-color="#0d4b69" stop-opacity="0"/><stop offset="1" stop-color="#0d4b69" stop-opacity="0.5"/></linearGradient><linearGradient id="linear-gradient-4" x1="-2138.88" y1="1067.56" x2="-2127.89" y2="1084.38" gradientTransform="translate(2141.97 -1064.34)" gradientUnits="userSpaceOnUse"><stop offset="0" stop-color="#b0eaff"/><stop offset="1" stop-color="#59caff"/></linearGradient></defs><g id="Layer_2" data-name="Layer 2"><g id="Layer_1-2" data-name="Layer 1"><path id="JG" class="cls-1" d="M8.44,19.3l-.2-.4a.37.37,0,0,0-.3-.1h0l-.8.5v-.8a.22.22,0,0,0-.2-.2h-.5a.22.22,0,0,0-.2.2v.8l-.8-.5c-.1-.1-.2,0-.3.1h0l-.2.4c-.1.1,0,.2.1.3l.8.5-.8.5a.37.37,0,0,0-.1.3h0l.2.4a.37.37,0,0,0,.3.1l.8-.5v.8a.22.22,0,0,0,.2.2h.5a.22.22,0,0,0,.2-.2v-.8l.8.5c.1.1.2,0,.3-.1l.2-.4c.1-.1,0-.2-.1-.3h0l-.8-.5.8-.5a.19.19,0,0,0,.1-.3Zm9,0-.2-.4a.37.37,0,0,0-.3-.1h0l-.8.5v-.8a.22.22,0,0,0-.2-.2h-.5a.22.22,0,0,0-.2.2v.8l-.8-.5a.19.19,0,0,0-.3.1l-.2.4c-.1.1,0,.2.1.3l.8.5-.8.5a.37.37,0,0,0-.1.3l.2.4a.37.37,0,0,0,.3.1l.8-.5v.8a.22.22,0,0,0,.2.2h.5a.22.22,0,0,0,.2-.2v-.8l.8.5c.1.1.2,0,.3-.1l.2-.4c.1-.1,0-.2-.1-.3l-.8-.5.8-.5C17.44,19.6,17.44,19.4,17.44,19.3Z"/><path id="JH" class="cls-2" d="M3.74,19.2l-2.5,4.3a.81.81,0,0,1-.9.3h0a.81.81,0,0,1-.3-.9l2.5-4.3a.65.65,0,0,1,.9-.2A.5.5,0,0,1,3.74,19.2Zm9,0-2.5,4.3a.6.6,0,0,1-.6.3.37.37,0,0,1-.3-.1.81.81,0,0,1-.3-.9H9l2.5-4.3a.81.81,0,0,1,.9-.3,1,1,0,0,1,.3,1Z"/><path id="JV" class="cls-3" d="M17.14,9.7c-.1-.1-.3,0-.4,0a6.39,6.39,0,0,1-1.9.8,6.56,6.56,0,0,1-2,.1,5.52,5.52,0,0,1-3.7-2.2A5.72,5.72,0,0,1,8,4.2a4.78,4.78,0,0,1,.6-1.8A4.43,4.43,0,0,1,9.84.9a.48.48,0,0,0,0-.7.76.76,0,0,0-.4-.2A7.9,7.9,0,0,0,5,2.1a7.42,7.42,0,0,0-2.2,4.4,7.69,7.69,0,0,0,1.4,5.7,7.71,7.71,0,0,0,5,3,7.67,7.67,0,0,0,4.9-1,7.63,7.63,0,0,0,3.3-3.8A.61.61,0,0,0,17.14,9.7Z"/><path id="JT" class="cls-4" d="M20.44,12.7A3,3,0,0,0,23,9.8,2.8,2.8,0,0,0,20.84,7a5.69,5.69,0,0,0-5.5-5,5.55,5.55,0,0,0-4.7,2.7h-.1a3.91,3.91,0,0,0-3.8,4,4,4,0,0,0,3.6,4Z"/><path id="JT-2" data-name="JT" class="cls-5" d="M20.44,12.7A3,3,0,0,0,23,9.8,2.8,2.8,0,0,0,20.84,7a5.69,5.69,0,0,0-5.5-5,5.55,5.55,0,0,0-4.7,2.7h-.1a3.91,3.91,0,0,0-3.8,4,4,4,0,0,0,3.6,4Z"/><path id="IZ" class="cls-6" d="M15.24,17a3.56,3.56,0,0,0,3.5-3.6,3.63,3.63,0,0,0-2.6-3.5,2.61,2.61,0,0,0-2.7-2.6,2.66,2.66,0,0,0-1.2.3,4.19,4.19,0,0,0-7.9.4,4.54,4.54,0,0,0-4,4.5A4.44,4.44,0,0,0,4.64,17Z"/></g></g></svg>