<svg xmlns="http://www.w3.org/2000/svg" xmlns:xlink="http://www.w3.org/1999/xlink" viewBox="0 0 24 24"><defs><style>.cls-1{fill:none;}.cls-2{clip-path:url(#clip-path);}.cls-3,.cls-4{fill:#7bd6ff;}.cls-4{fill-rule:evenodd;}.cls-5{fill:url(#linear-gradient);}.cls-6{fill:#fff59d;}.cls-7{fill:url(#linear-gradient-2);}.cls-8{fill-opacity:0.2;fill:url(#linear-gradient-3);}.cls-9{fill:url(#linear-gradient-4);}</style><clipPath id="clip-path"><rect class="cls-1" width="24" height="24"/></clipPath><linearGradient id="linear-gradient" x1="1.11" y1="1063.94" x2="17.09" y2="1080.74" gradientTransform="translate(0 -1064.34)" gradientUnits="userSpaceOnUse"><stop offset="0" stop-color="#ffda57"/><stop offset="1" stop-color="#fccf2e"/></linearGradient><linearGradient id="linear-gradient-2" x1="9.41" y1="1065.01" x2="19.18" y2="1079.96" gradientTransform="translate(0 -1064.34)" gradientUnits="userSpaceOnUse"><stop offset="0" stop-color="#71d1ff"/><stop offset="1" stop-color="#40c2ff"/></linearGradient><linearGradient id="linear-gradient-3" x1="15.25" y1="1066.53" x2="15.25" y2="1077.19" gradientTransform="translate(0 -1064.34)" gradientUnits="userSpaceOnUse"><stop offset="0" stop-color="#0d4b69" stop-opacity="0"/><stop offset="1" stop-color="#0d4b69" stop-opacity="0.5"/></linearGradient><linearGradient id="linear-gradient-4" x1="3.43" y1="1067.77" x2="14.42" y2="1084.59" gradientTransform="translate(0 -1064.34)" gradientUnits="userSpaceOnUse"><stop offset="0" stop-color="#b0eaff"/><stop offset="1" stop-color="#59caff"/></linearGradient></defs><g id="Layer_2" data-name="Layer 2"><g id="Layer_1-2" data-name="Layer 1"><g class="cls-2"><path class="cls-3" d="M8.8,19.5l-.2-.4a.37.37,0,0,0-.3-.1l-.8.5v-.8a.22.22,0,0,0-.2-.2H6.8a.22.22,0,0,0-.2.2v.8L5.8,19c-.1-.1-.2,0-.3.1l-.2.4c-.1.1,0,.2.1.3l.8.5-.8.5a.37.37,0,0,0-.1.3l.2.4a.37.37,0,0,0,.3.1l.8-.5v.8a.22.22,0,0,0,.2.2h.5a.22.22,0,0,0,.2-.2v-.8l.8.5c.1.1.2,0,.3-.1l.2-.4c.1-.1,0-.2-.1-.3l-.8-.5.8-.5C8.9,19.7,8.9,19.6,8.8,19.5Zm9,0-.2-.4a.37.37,0,0,0-.3-.1l-.8.5v-.8a.22.22,0,0,0-.2-.2h-.5a.22.22,0,0,0-.2.2v.8l-.9-.5c-.1-.1-.2,0-.3.1l-.2.4c-.1.1,0,.2.1.3l.8.5-.8.5a.37.37,0,0,0-.1.3l.2.4a.37.37,0,0,0,.3.1l.8-.5v.8a.22.22,0,0,0,.2.2h.5a.22.22,0,0,0,.2-.2v-.8l.8.5c.1.1.2,0,.3-.1l.2-.4c.1-.1,0-.2-.1-.3l-.8-.5.8-.5C17.8,19.7,17.8,19.6,17.8,19.5Z"/><path class="cls-4" d="M4.1,19.4,1.6,23.7a.81.81,0,0,1-.9.3.81.81,0,0,1-.3-.9h0l2.5-4.3a.81.81,0,0,1,.9-.3h0a.59.59,0,0,1,.3.9Zm9,0-2.5,4.3a.81.81,0,0,1-.9.3.81.81,0,0,1-.3-.9h0l2.5-4.3a.81.81,0,0,1,.9-.3h0c.3.1.4.6.3.9Z"/><path class="cls-5" d="M9.1,14.1,6.5,16l-1-3.1H2.3l1-3.1L.7,8,3.4,6.1,2.4,3H5.6l1-3.1L9.2,1.8,11.7,0l1,3.1h3.2l-1,3.1,2.7,1.9L14.9,10l1,3.1H12.7l-1,3.1Z"/><path class="cls-6" d="M9,12.6A4.6,4.6,0,0,0,9,3.4H9a4.6,4.6,0,0,0,0,9.2Z"/><path class="cls-7" d="M20.8,12.9A3,3,0,0,0,23.4,10a2.8,2.8,0,0,0-2.2-2.8,5.61,5.61,0,0,0-5.5-5A5.55,5.55,0,0,0,11,4.9h-.1a3.91,3.91,0,0,0-3.8,4,4,4,0,0,0,3.6,4Z"/><path class="cls-8" d="M20.8,12.9A3,3,0,0,0,23.4,10a2.8,2.8,0,0,0-2.2-2.8,5.61,5.61,0,0,0-5.5-5A5.55,5.55,0,0,0,11,4.9h-.1a3.91,3.91,0,0,0-3.8,4,4,4,0,0,0,3.6,4Z"/><path class="cls-9" d="M15.6,17.2a3.56,3.56,0,0,0,3.5-3.6,3.63,3.63,0,0,0-2.6-3.5,2.63,2.63,0,0,0-2.8-2.6,2,2,0,0,0-1.1.3A4.23,4.23,0,0,0,7.1,5.6,4.29,4.29,0,0,0,4.7,8.3a4.54,4.54,0,0,0-4,4.5A4.44,4.44,0,0,0,5,17.3l10.6-.1Z"/></g></g></g></svg>