<svg xmlns="http://www.w3.org/2000/svg" xmlns:xlink="http://www.w3.org/1999/xlink" viewBox="0 0 22.7 23.8"><defs><style>.cls-1,.cls-2{fill:#7bd6ff;}.cls-2{fill-rule:evenodd;}.cls-3{fill:url(#linear-gradient);}.cls-4{fill:url(#linear-gradient-2);}.cls-5{fill-opacity:0.2;fill:url(#linear-gradient-3);}.cls-6{fill:url(#linear-gradient-4);}</style><linearGradient id="linear-gradient" x1="-134.22" y1="1065.52" x2="-119.66" y2="1080.51" gradientTransform="translate(136 -1064.34)" gradientUnits="userSpaceOnUse"><stop offset="0" stop-color="#d9e9f1"/><stop offset="1" stop-color="#bfd7e2"/></linearGradient><linearGradient id="linear-gradient-2" x1="-161.29" y1="1068.32" x2="-151.52" y2="1083.27" gradientTransform="translate(170 -1067.85)" gradientUnits="userSpaceOnUse"><stop offset="0" stop-color="#71d1ff"/><stop offset="1" stop-color="#40c2ff"/></linearGradient><linearGradient id="linear-gradient-3" x1="-155.45" y1="1069.85" x2="-155.45" y2="1080.52" gradientTransform="translate(170 -1067.85)" gradientUnits="userSpaceOnUse"><stop offset="0" stop-color="#0d4b69" stop-opacity="0"/><stop offset="1" stop-color="#0d4b69" stop-opacity="0.5"/></linearGradient><linearGradient id="linear-gradient-4" x1="-2105.21" y1="1067.56" x2="-2094.22" y2="1084.38" gradientTransform="translate(2107.97 -1064.34)" gradientUnits="userSpaceOnUse"><stop offset="0" stop-color="#b0eaff"/><stop offset="1" stop-color="#59caff"/></linearGradient></defs><g id="Layer_2" data-name="Layer 2"><g id="Layer_1-2" data-name="Layer 1"><path id="JE" class="cls-1" d="M10.5,19.3l-.2-.4a.37.37,0,0,0-.3-.1l-.8.5v-.8a.22.22,0,0,0-.2-.2H8.5a.22.22,0,0,0-.2.2v.8l-.8-.5c-.1-.1-.2,0-.3.1h0l-.2.4c-.1.1,0,.2.1.3l.8.5-.8.5a.37.37,0,0,0-.1.3l.2.4a.37.37,0,0,0,.3.1l.8-.5v.8a.22.22,0,0,0,.2.2H9a.22.22,0,0,0,.2-.2v-.8l.8.5a.19.19,0,0,0,.3-.1l.2-.4c.1-.1,0-.2-.1-.3l-.8-.5.8-.5C10.5,19.6,10.5,19.4,10.5,19.3Z"/><path id="JF" class="cls-2" d="M5.7,19.2,3.2,23.5a.6.6,0,0,1-.6.3.37.37,0,0,1-.3-.1.81.81,0,0,1-.3-.9H2l2.5-4.3a.81.81,0,0,1,.9-.3.73.73,0,0,1,.3,1Zm9,0-2.5,4.3a.71.71,0,0,1-.6.3.68.68,0,0,1-.7-.7.37.37,0,0,1,.1-.3l2.5-4.3a.65.65,0,0,1,.9-.2.69.69,0,0,1,.3.9Z"/><path id="JV" class="cls-3" d="M16.8,9.7c-.1-.1-.3,0-.4,0a6.39,6.39,0,0,1-1.9.8,6.56,6.56,0,0,1-2,.1A5.52,5.52,0,0,1,8.8,8.4,5.72,5.72,0,0,1,7.7,4.2a4.78,4.78,0,0,1,.6-1.8A4.43,4.43,0,0,1,9.5.9a.48.48,0,0,0,0-.7A.76.76,0,0,0,9.1,0,7.9,7.9,0,0,0,4.7,2.1,7.42,7.42,0,0,0,2.5,6.5a7.69,7.69,0,0,0,1.4,5.7,7.71,7.71,0,0,0,5,3,7.67,7.67,0,0,0,4.9-1,7.63,7.63,0,0,0,3.3-3.8A.61.61,0,0,0,16.8,9.7Z"/><path id="JT" class="cls-4" d="M20.1,12.7a3,3,0,0,0,2.6-2.9A2.8,2.8,0,0,0,20.5,7,5.69,5.69,0,0,0,15,2a5.55,5.55,0,0,0-4.7,2.7h-.1a3.91,3.91,0,0,0-3.8,4,4,4,0,0,0,3.6,4Z"/><path id="JT-2" data-name="JT" class="cls-5" d="M20.1,12.7a3,3,0,0,0,2.6-2.9A2.8,2.8,0,0,0,20.5,7,5.69,5.69,0,0,0,15,2a5.55,5.55,0,0,0-4.7,2.7h-.1a3.91,3.91,0,0,0-3.8,4,4,4,0,0,0,3.6,4Z"/><path id="IZ" class="cls-6" d="M14.9,17a3.56,3.56,0,0,0,3.5-3.6,3.63,3.63,0,0,0-2.6-3.5,2.61,2.61,0,0,0-2.7-2.6,2.66,2.66,0,0,0-1.2.3A4.19,4.19,0,0,0,4,8a4.54,4.54,0,0,0-4,4.5A4.44,4.44,0,0,0,4.3,17Z"/></g></g></svg>