<svg xmlns="http://www.w3.org/2000/svg" xmlns:xlink="http://www.w3.org/1999/xlink" viewBox="0 0 24 24"><defs><style>.cls-1{fill:none;}.cls-2{clip-path:url(#clip-path);}.cls-3{fill:url(#linear-gradient);}.cls-4{fill:url(#linear-gradient-2);}.cls-5{fill-opacity:0.2;fill:url(#linear-gradient-3);}.cls-6{fill:url(#linear-gradient-4);}.cls-7,.cls-8{fill-rule:evenodd;}.cls-7{fill:url(#linear-gradient-5);}.cls-8,.cls-9{fill:#7bd6ff;}</style><clipPath id="clip-path"><rect class="cls-1" width="24" height="24"/></clipPath><linearGradient id="linear-gradient" x1="2.39" y1="1065.73" x2="16.95" y2="1080.72" gradientTransform="translate(0 -1064.34)" gradientUnits="userSpaceOnUse"><stop offset="0" stop-color="#d9e9f1"/><stop offset="1" stop-color="#bfd7e2"/></linearGradient><linearGradient id="linear-gradient-2" x1="9.31" y1="1065.01" x2="19.08" y2="1079.96" gradientTransform="translate(0 -1064.34)" gradientUnits="userSpaceOnUse"><stop offset="0" stop-color="#71d1ff"/><stop offset="1" stop-color="#40c2ff"/></linearGradient><linearGradient id="linear-gradient-3" x1="15.15" y1="1066.53" x2="15.15" y2="1077.19" gradientTransform="translate(0 -1064.34)" gradientUnits="userSpaceOnUse"><stop offset="0" stop-color="#0d4b69" stop-opacity="0"/><stop offset="1" stop-color="#0d4b69" stop-opacity="0.5"/></linearGradient><linearGradient id="linear-gradient-4" x1="3.36" y1="1067.76" x2="14.35" y2="1084.58" gradientTransform="translate(0 -1064.34)" gradientUnits="userSpaceOnUse"><stop offset="0" stop-color="#b0eaff"/><stop offset="1" stop-color="#59caff"/></linearGradient><linearGradient id="linear-gradient-5" x1="12" y1="1073.04" x2="12" y2="1086.37" gradientTransform="translate(0 -1064.34)" gradientUnits="userSpaceOnUse"><stop offset="0" stop-color="#fff733"/><stop offset="1" stop-color="#ffd600"/></linearGradient></defs><g id="Layer_2" data-name="Layer 2"><g id="Layer_1-2" data-name="Layer 1"><g class="cls-2"><path class="cls-3" d="M17.4,9.9c-.1-.1-.3,0-.4,0a6.39,6.39,0,0,1-1.9.8,6.56,6.56,0,0,1-2,.1A5.52,5.52,0,0,1,9.4,8.6,5.72,5.72,0,0,1,8.3,4.4a4.78,4.78,0,0,1,.6-1.8,4.43,4.43,0,0,1,1.2-1.5.48.48,0,0,0,0-.7A.76.76,0,0,0,9.7.2,7.9,7.9,0,0,0,5.3,2.3,7.42,7.42,0,0,0,3.1,6.7a7.61,7.61,0,0,0,6.4,8.7,7.67,7.67,0,0,0,4.9-1,7.63,7.63,0,0,0,3.3-3.8A.52.52,0,0,0,17.4,9.9Z"/><path class="cls-4" d="M20.7,12.9A3,3,0,0,0,23.3,10a2.8,2.8,0,0,0-2.2-2.8,5.69,5.69,0,0,0-5.5-5,5.55,5.55,0,0,0-4.7,2.7h-.1A3.91,3.91,0,0,0,7,8.9a4,4,0,0,0,3.6,4Z"/><path class="cls-5" d="M20.7,12.9A3,3,0,0,0,23.3,10a2.8,2.8,0,0,0-2.2-2.8,5.69,5.69,0,0,0-5.5-5,5.55,5.55,0,0,0-4.7,2.7h-.1A3.91,3.91,0,0,0,7,8.9a4,4,0,0,0,3.6,4Z"/><path class="cls-6" d="M15.5,17.2A3.56,3.56,0,0,0,19,13.6a3.63,3.63,0,0,0-2.6-3.5,2.61,2.61,0,0,0-2.7-2.6,2.66,2.66,0,0,0-1.2.3,4.19,4.19,0,0,0-7.9.4,4.54,4.54,0,0,0-4,4.5,4.44,4.44,0,0,0,4.3,4.5Z"/><path class="cls-7" d="M10.1,8.7,7.8,15.5h3.6L9.2,22.1l7-9.3-3.9-.1,1.4-3.8Z"/><path class="cls-8" d="M7.7,19.4,6.5,21.5a.81.81,0,0,1-.9.3.81.81,0,0,1-.3-.9h0l1.2-2.1a.81.81,0,0,1,.9-.3A.61.61,0,0,1,7.7,19.4ZM1.9,23.7A.81.81,0,0,1,1,24a.69.69,0,0,1-.3-.9h0l2.4-4.3a.75.75,0,0,1,1-.2.65.65,0,0,1,.2.9L1.9,23.7Z"/><path class="cls-9" d="M17.9,19.4l-.2-.4c-.1-.1-.2-.2-.3-.1l-.9.5v-.9a.22.22,0,0,0-.2-.2h-.5a.22.22,0,0,0-.2.2v.9l-.9-.5a.19.19,0,0,0-.3.1l-.2.4a.19.19,0,0,0,.1.3h0l.9.5-.9.5c-.1.1-.2.2-.1.3h0l.2.4c.1.1.2.2.3.1l.9-.5v.9a.22.22,0,0,0,.2.2h.5a.22.22,0,0,0,.2-.2V21l.9.5a.19.19,0,0,0,.3-.1l.2-.4a.19.19,0,0,0-.1-.3h0l-.9-.5.9-.5c.1-.1.2-.2.1-.3Z"/></g></g></g></svg>