<svg xmlns="http://www.w3.org/2000/svg" xmlns:xlink="http://www.w3.org/1999/xlink" viewBox="0 0 24 24"><defs><style>.cls-1{fill:none;}.cls-2{clip-path:url(#clip-path);}.cls-3{fill:#7bd6ff;}.cls-4{fill:url(#linear-gradient);}.cls-5{fill:#fff59d;}.cls-6{fill:url(#linear-gradient-2);}.cls-7{fill-opacity:0.2;fill:url(#linear-gradient-3);}.cls-8{fill:url(#linear-gradient-4);}</style><clipPath id="clip-path"><rect class="cls-1" width="24" height="24"/></clipPath><linearGradient id="linear-gradient" x1="1.14" y1="1063.87" x2="17.12" y2="1080.67" gradientTransform="translate(0 -1064.34)" gradientUnits="userSpaceOnUse"><stop offset="0" stop-color="#ffda57"/><stop offset="1" stop-color="#fccf2e"/></linearGradient><linearGradient id="linear-gradient-2" x1="9.44" y1="1064.95" x2="19.21" y2="1079.9" gradientTransform="translate(0 -1064.34)" gradientUnits="userSpaceOnUse"><stop offset="0" stop-color="#71d1ff"/><stop offset="1" stop-color="#40c2ff"/></linearGradient><linearGradient id="linear-gradient-3" x1="15.25" y1="1066.49" x2="15.25" y2="1077.16" gradientTransform="translate(0 -1064.34)" gradientUnits="userSpaceOnUse"><stop offset="0" stop-color="#0d4b69" stop-opacity="0"/><stop offset="1" stop-color="#0d4b69" stop-opacity="0.5"/></linearGradient><linearGradient id="linear-gradient-4" x1="3.41" y1="1067.74" x2="14.4" y2="1084.57" gradientTransform="translate(0 -1064.34)" gradientUnits="userSpaceOnUse"><stop offset="0" stop-color="#b0eaff"/><stop offset="1" stop-color="#59caff"/></linearGradient></defs><g id="Layer_2" data-name="Layer 2"><g id="Layer_1-2" data-name="Layer 1"><g class="cls-2"><path class="cls-3" d="M7.1,19l-.2-.3a.37.37,0,0,0-.3-.1l-.7.4v-.7a.22.22,0,0,0-.2-.2H5.3a.22.22,0,0,0-.2.2V19l-.7-.4c-.1-.1-.2,0-.3.1l-.2.3c-.1.1,0,.2.1.3H4l.7.4-.7.4a.37.37,0,0,0-.1.3h0l.2.3a.37.37,0,0,0,.3.1l.7-.4v.7a.22.22,0,0,0,.2.2h.4a.22.22,0,0,0,.2-.2v-.7l.7.4c.1.1.2,0,.3-.1l.2-.3c.1-.1,0-.2-.1-.3l-.7-.4.7-.4a.37.37,0,0,0,.1-.3Zm4.2,0-.2-.3a.37.37,0,0,0-.3-.1l-.7.4v-.7a.22.22,0,0,0-.2-.2H9.5a.22.22,0,0,0-.2.2V19l-.7-.4c-.1-.1-.2,0-.3.1l-.2.3c-.1.1,0,.2.1.3h0l.7.4-.7.4a.37.37,0,0,0-.1.3h0l.2.3a.37.37,0,0,0,.3.1l.7-.4v.7a.22.22,0,0,0,.2.2h.4a.22.22,0,0,0,.2-.2v-.7l.7.4c.1.1.2,0,.3-.1l.2-.3c.1-.1,0-.2-.1-.3l-.7-.4.7-.4c.2-.1.2-.2.1-.3Zm4.3,0-.2-.3a.37.37,0,0,0-.3-.1l-.7.4v-.7a.22.22,0,0,0-.2-.2h-.4a.22.22,0,0,0-.2.2V19l-.7-.4c-.1-.1-.2,0-.3.1l-.2.3c-.1.1,0,.2.1.3h0l.7.4-.7.4a.37.37,0,0,0-.1.3h0l.2.3a.37.37,0,0,0,.3.1l.7-.4v.7a.22.22,0,0,0,.2.2h.4a.22.22,0,0,0,.2-.2v-.7l.7.4c.1.1.2,0,.3-.1l.2-.3c.1-.1,0-.2-.1-.3l-.7-.4.7-.4a.37.37,0,0,0,.1-.3Z"/><path class="cls-4" d="M9.1,14.1,6.5,16l-1-3.1H2.3l1-3.1L.6,7.9,3.3,6l-1-3.1H5.5l1-3.1L9.1,1.7,11.7-.2l1,3.1h3.2L14.9,6l2.7,1.9L14.9,9.8l1,3.1H12.7l-1,3.1Z"/><path class="cls-5" d="M9,12.6A4.6,4.6,0,0,0,9,3.4,4.53,4.53,0,0,0,4.4,8,4.59,4.59,0,0,0,9,12.6Z"/><path class="cls-6" d="M20.8,12.8a3,3,0,0,0,2.6-2.9,2.8,2.8,0,0,0-2.2-2.8,5.61,5.61,0,0,0-5.5-5A5.55,5.55,0,0,0,11,4.8h-.1a3.91,3.91,0,0,0-3.8,4,4,4,0,0,0,3.6,4Z"/><path class="cls-7" d="M20.8,12.8a3,3,0,0,0,2.6-2.9,2.8,2.8,0,0,0-2.2-2.8,5.61,5.61,0,0,0-5.5-5A5.55,5.55,0,0,0,11,4.8h-.1a3.91,3.91,0,0,0-3.8,4,4,4,0,0,0,3.6,4Z"/><path class="cls-8" d="M15.6,17.2a3.56,3.56,0,0,0,3.5-3.6,3.63,3.63,0,0,0-2.6-3.5,2.63,2.63,0,0,0-2.8-2.6,2,2,0,0,0-1.1.3A4.23,4.23,0,0,0,7.1,5.6,4.29,4.29,0,0,0,4.7,8.3a4.54,4.54,0,0,0-4,4.5A4.44,4.44,0,0,0,5,17.3l10.6-.1Z"/></g></g></g></svg>