<svg xmlns="http://www.w3.org/2000/svg" xmlns:xlink="http://www.w3.org/1999/xlink" viewBox="0 0 24 24"><defs><style>.cls-1{fill:none;}.cls-2{clip-path:url(#clip-path);}.cls-3{fill:#7bd6ff;}.cls-4{fill:url(#linear-gradient);}.cls-5{fill:#fff59d;}.cls-6{fill:url(#linear-gradient-2);}.cls-7{fill-opacity:0.2;fill:url(#linear-gradient-3);}.cls-8{fill:url(#linear-gradient-4);}</style><clipPath id="clip-path"><rect class="cls-1" width="24" height="24"/></clipPath><linearGradient id="linear-gradient" x1="1.16" y1="1063.89" x2="17.14" y2="1080.69" gradientTransform="translate(0 -1064.34)" gradientUnits="userSpaceOnUse"><stop offset="0" stop-color="#ffda57"/><stop offset="1" stop-color="#fccf2e"/></linearGradient><linearGradient id="linear-gradient-2" x1="9.45" y1="1064.97" x2="19.22" y2="1079.92" gradientTransform="translate(0 -1064.34)" gradientUnits="userSpaceOnUse"><stop offset="0" stop-color="#71d1ff"/><stop offset="1" stop-color="#40c2ff"/></linearGradient><linearGradient id="linear-gradient-3" x1="15.25" y1="1066.52" x2="15.25" y2="1077.19" gradientTransform="translate(0 -1064.34)" gradientUnits="userSpaceOnUse"><stop offset="0" stop-color="#0d4b69" stop-opacity="0"/><stop offset="1" stop-color="#0d4b69" stop-opacity="0.5"/></linearGradient><linearGradient id="linear-gradient-4" x1="3.45" y1="1067.75" x2="14.44" y2="1084.57" gradientTransform="translate(0 -1064.34)" gradientUnits="userSpaceOnUse"><stop offset="0" stop-color="#b0eaff"/><stop offset="1" stop-color="#59caff"/></linearGradient></defs><g id="Layer_2" data-name="Layer 2"><g id="Layer_1-2" data-name="Layer 1"><g class="cls-2"><path class="cls-3" d="M9.2,19.1,9,18.8c0-.1-.2-.1-.2-.1h0l-.7.4v-.7a.22.22,0,0,0-.2-.2H7.5a.22.22,0,0,0-.2.2v.7l-.7-.4c-.1-.1-.2,0-.3.1l-.2.3c-.1.1,0,.2.1.3l.7.4-.7.4a.37.37,0,0,0-.1.3l.2.3a.37.37,0,0,0,.3.1l.7-.4v.7a.22.22,0,0,0,.2.2h.4a.22.22,0,0,0,.2-.2v-.7l.7.4c.1.1.2,0,.2-.1l.2-.3c.1-.1,0-.2-.1-.3l-.7-.4.7-.4C9.2,19.3,9.3,19.2,9.2,19.1ZM7,21.9l-.2-.3a.37.37,0,0,0-.3-.1l-.7.4v-.7a.22.22,0,0,0-.2-.2H5.2a.22.22,0,0,0-.2.2v.7l-.7-.4c-.1-.1-.2,0-.3.1l.1.3c-.1.1,0,.2.1.3l.7.4-.7.4c-.1,0-.1.2-.1.2h0l.2.3a.37.37,0,0,0,.3.1l.7-.4v.7a.22.22,0,0,0,.2.2h.4a.22.22,0,0,0,.2-.2v-.7l.7.4c.1.1.2,0,.3-.1l.2-.3a.14.14,0,0,0,0-.2h0l-.7-.4.7-.4c-.2-.1-.2-.2-.3-.3Zm4.3,0-.2-.3a.37.37,0,0,0-.3-.1l-.7.4v-.7a.22.22,0,0,0-.2-.2H9.5a.22.22,0,0,0-.2.2v.7l-.7-.4c-.1-.1-.2,0-.3.1l-.2.3c-.1.1,0,.2.1.3l.7.4-.7.4c-.1,0-.1.2-.1.2h0l.2.3a.37.37,0,0,0,.3.1l.7-.4v.7a.22.22,0,0,0,.2.2h.4a.22.22,0,0,0,.2-.2v-.7l.7.4c.1.1.2,0,.3-.1l.2-.3a.14.14,0,0,0,0-.2h0l-.7-.4.7-.4v-.3Zm2.2-2.8-.2-.3c0-.1-.2-.1-.2-.1h0l-.7.4v-.7a.22.22,0,0,0-.2-.2h-.4a.22.22,0,0,0-.2.2v.7l-.7-.4c-.1-.1-.2,0-.2.1l-.2.3c-.1.1,0,.2.1.3l.7.4-.7.4a.37.37,0,0,0-.1.3l.2.3a.31.31,0,0,0,.2.1l.7-.4v.7a.22.22,0,0,0,.2.2h.4a.22.22,0,0,0,.2-.2v-.7l.7.4c.1.1.2,0,.2-.1l.2-.3c.1-.1,0-.2-.1-.3l-.7-.4.7-.4A.37.37,0,0,0,13.5,19.1Z"/><path id="IS" class="cls-4" d="M9.1,14.1,6.5,16l-1-3.1H2.3l1-3.1L.6,7.9,3.3,6l-1-3.1H5.5l1-3.1L9.1,1.7,11.7-.2l1,3.1h3.2L14.8,6l2.7,1.9L14.8,9.8l1.1,3.1H12.7l-1,3.1Z"/><path id="IT" class="cls-5" d="M9,12.6a4.55,4.55,0,1,0,.1-9.1H9a4.55,4.55,0,1,0,0,9.1Z"/><path id="IU" class="cls-6" d="M20.8,12.8a2.92,2.92,0,0,0,2.6-2.9,2.8,2.8,0,0,0-2.2-2.8,5.61,5.61,0,0,0-5.5-5A5.42,5.42,0,0,0,11,4.8h-.1a3.91,3.91,0,0,0-3.8,4,4,4,0,0,0,3.6,4Z"/><path id="IU-2" data-name="IU" class="cls-7" d="M20.8,12.8a2.92,2.92,0,0,0,2.6-2.9,2.8,2.8,0,0,0-2.2-2.8,5.61,5.61,0,0,0-5.5-5A5.42,5.42,0,0,0,11,4.8h-.1a3.91,3.91,0,0,0-3.8,4,4,4,0,0,0,3.6,4Z"/><path id="IV" class="cls-8" d="M15.6,17.2a3.56,3.56,0,0,0,3.5-3.6,3.63,3.63,0,0,0-2.6-3.5,2.61,2.61,0,0,0-2.7-2.6,2.66,2.66,0,0,0-1.2.3,4.19,4.19,0,0,0-7.9.4,4.54,4.54,0,0,0-4,4.5A4.44,4.44,0,0,0,5,17.2Z"/></g></g></g></svg>