<svg xmlns="http://www.w3.org/2000/svg" xmlns:xlink="http://www.w3.org/1999/xlink" viewBox="0 0 22.8 21.2"><defs><style>.cls-1{fill:#7bd6ff;}.cls-2{fill:url(#linear-gradient);}.cls-3{fill:url(#linear-gradient-2);}.cls-4{fill-opacity:0.2;fill:url(#linear-gradient-3);}.cls-5{fill:url(#linear-gradient-4);}</style><linearGradient id="linear-gradient" x1="-270.14" y1="1065.5" x2="-255.58" y2="1080.49" gradientTransform="translate(272 -1064.34)" gradientUnits="userSpaceOnUse"><stop offset="0" stop-color="#d9e9f1"/><stop offset="1" stop-color="#bfd7e2"/></linearGradient><linearGradient id="linear-gradient-2" x1="-297.16" y1="1068.26" x2="-287.39" y2="1083.21" gradientTransform="translate(306 -1067.85)" gradientUnits="userSpaceOnUse"><stop offset="0" stop-color="#71d1ff"/><stop offset="1" stop-color="#40c2ff"/></linearGradient><linearGradient id="linear-gradient-3" x1="-291.35" y1="1069.82" x2="-291.35" y2="1080.49" gradientTransform="translate(306 -1067.85)" gradientUnits="userSpaceOnUse"><stop offset="0" stop-color="#0d4b69" stop-opacity="0"/><stop offset="1" stop-color="#0d4b69" stop-opacity="0.5"/></linearGradient><linearGradient id="linear-gradient-4" x1="-2241.2" y1="1067.57" x2="-2230.21" y2="1084.4" gradientTransform="translate(2243.97 -1064.34)" gradientUnits="userSpaceOnUse"><stop offset="0" stop-color="#b0eaff"/><stop offset="1" stop-color="#59caff"/></linearGradient></defs><g id="Layer_2" data-name="Layer 2"><g id="Layer_1-2" data-name="Layer 1"><path class="cls-1" d="M6.5,18.9l-.2-.3a.37.37,0,0,0-.3-.1l-.6.4v-.7a.22.22,0,0,0-.2-.2H4.8a.22.22,0,0,0-.2.2v.7l-.7-.4c-.1-.1-.2,0-.2.1h0l-.2.3c-.1.1,0,.2.1.3l.6.4-.6.4a.37.37,0,0,0-.1.3l.2.3c0,.1.2.1.2.1h0l.7-.4V21a.22.22,0,0,0,.2.2h.4a.22.22,0,0,0,.2-.2v-.7l.6.4c.1.1.2,0,.3-.1l.2-.3c.1-.1,0-.2-.1-.3l-.6-.4.6-.4A.37.37,0,0,0,6.5,18.9Zm4.2,0-.2-.3a.37.37,0,0,0-.3-.1l-.6.4v-.7a.22.22,0,0,0-.2-.2H9a.22.22,0,0,0-.2.2v.7l-.7-.4c-.1-.1-.2,0-.2.1h0l-.2.3c-.1.1,0,.2.1.3l.6.4-.6.4a.37.37,0,0,0-.1.3l.2.3c0,.1.2.1.2.1h0l.7-.4V21a.22.22,0,0,0,.2.2h.4a.22.22,0,0,0,.2-.2v-.7l.6.4c.1.1.2,0,.3-.1l.2-.3c.1-.1,0-.2-.1-.3l-.6-.4.6-.4C10.8,19.1,10.8,19,10.7,18.9Zm4.3,0-.2-.3a.37.37,0,0,0-.3-.1l-.6.4v-.7a.22.22,0,0,0-.2-.2h-.4a.22.22,0,0,0-.2.2v.7l-.7-.4c-.1-.1-.2,0-.2.1h0l-.2.3c-.1.1,0,.2.1.3l.6.4-.6.4a.37.37,0,0,0-.1.3l.2.3c0,.1.2.1.2.1h0l.7-.4V21a.22.22,0,0,0,.2.2h.4a.22.22,0,0,0,.2-.2v-.7l.6.4c.1.1.2,0,.3-.1l.2-.3c.1-.1,0-.2-.1-.3l-.6-.4.6-.4A.37.37,0,0,0,15,18.9Z"/><path id="JV" class="cls-2" d="M16.9,9.7c-.1-.1-.3,0-.4,0a6.39,6.39,0,0,1-1.9.8,6.56,6.56,0,0,1-2,.1A5.52,5.52,0,0,1,8.9,8.4,5.72,5.72,0,0,1,7.8,4.2a4.78,4.78,0,0,1,.6-1.8A4.43,4.43,0,0,1,9.6.9a.48.48,0,0,0,0-.7A.76.76,0,0,0,9.2,0,7.9,7.9,0,0,0,4.8,2.1,7.42,7.42,0,0,0,2.6,6.5,7.69,7.69,0,0,0,4,12.2a7.71,7.71,0,0,0,5,3,7.67,7.67,0,0,0,4.9-1,7.63,7.63,0,0,0,3.3-3.8C17.2,10,17.1,9.8,16.9,9.7Z"/><path id="JT" class="cls-3" d="M20.2,12.6a3,3,0,0,0,2.6-2.9,2.8,2.8,0,0,0-2.2-2.8,5.69,5.69,0,0,0-5.5-5,5.55,5.55,0,0,0-4.7,2.7h-.1a3.91,3.91,0,0,0-3.8,4,4,4,0,0,0,3.6,4Z"/><path id="JT-2" data-name="JT" class="cls-4" d="M20.2,12.6a3,3,0,0,0,2.6-2.9,2.8,2.8,0,0,0-2.2-2.8,5.69,5.69,0,0,0-5.5-5,5.55,5.55,0,0,0-4.7,2.7h-.1a3.91,3.91,0,0,0-3.8,4,4,4,0,0,0,3.6,4Z"/><path id="IZ" class="cls-5" d="M14.9,17a3.56,3.56,0,0,0,3.5-3.6,3.63,3.63,0,0,0-2.6-3.5,2.61,2.61,0,0,0-2.7-2.6,2.66,2.66,0,0,0-1.2.3A4.19,4.19,0,0,0,4,8a4.54,4.54,0,0,0-4,4.5A4.44,4.44,0,0,0,4.3,17Z"/></g></g></svg>