<svg xmlns="http://www.w3.org/2000/svg" xmlns:xlink="http://www.w3.org/1999/xlink" viewBox="0 0 24 17.5"><defs><style>.cls-1{fill:url(#linear-gradient);}.cls-2{fill-opacity:0.2;fill:url(#linear-gradient-2);}.cls-3{fill:url(#linear-gradient-3);}</style><linearGradient id="linear-gradient" x1="10.03" y1="1062.84" x2="19.8" y2="1077.79" gradientTransform="translate(0 -1064.34)" gradientUnits="userSpaceOnUse"><stop offset="0" stop-color="#71d1ff"/><stop offset="1" stop-color="#40c2ff"/></linearGradient><linearGradient id="linear-gradient-2" x1="15.85" y1="1064.37" x2="15.85" y2="1075.04" gradientTransform="translate(0 -1064.34)" gradientUnits="userSpaceOnUse"><stop offset="0" stop-color="#0d4b69" stop-opacity="0"/><stop offset="1" stop-color="#0d4b69" stop-opacity="0.5"/></linearGradient><linearGradient id="linear-gradient-3" x1="3.04" y1="1066.56" x2="15.25" y2="1085.26" gradientTransform="translate(0 -1064.34)" gradientUnits="userSpaceOnUse"><stop offset="0" stop-color="#b0eaff"/><stop offset="1" stop-color="#59caff"/></linearGradient></defs><g id="Layer_2" data-name="Layer 2"><g id="Layer_1-2" data-name="Layer 1"><path id="Hp" class="cls-1" d="M21.4,10.7A3,3,0,0,0,24,7.8,2.8,2.8,0,0,0,21.8,5a5.61,5.61,0,0,0-5.5-5,5.55,5.55,0,0,0-4.7,2.7h-.1a3.91,3.91,0,0,0-3.8,4,4,4,0,0,0,3.6,4Z"/><path id="Hp-2" data-name="Hp" class="cls-2" d="M21.4,10.7A3,3,0,0,0,24,7.8,2.8,2.8,0,0,0,21.8,5a5.61,5.61,0,0,0-5.5-5,5.55,5.55,0,0,0-4.7,2.7h-.1a3.91,3.91,0,0,0-3.8,4,4,4,0,0,0,3.6,4Z"/><path class="cls-3" d="M16.5,17.5a4,4,0,0,0,3.9-4,4.17,4.17,0,0,0-2.9-3.9,2.89,2.89,0,0,0-3.1-2.9,2.38,2.38,0,0,0-1.2.3A4.66,4.66,0,0,0,7.1,4.5a4.51,4.51,0,0,0-2.7,3,5,5,0,0,0-4.4,5,4.91,4.91,0,0,0,4.8,5Z"/></g></g></svg>