<svg xmlns="http://www.w3.org/2000/svg" xmlns:xlink="http://www.w3.org/1999/xlink" viewBox="0 0 24 24.04"><defs><style>.cls-1{fill:#7bd6ff;fill-rule:evenodd;}.cls-2{fill:url(#linear-gradient);}.cls-3{fill-opacity:0.2;fill:url(#linear-gradient-2);}.cls-4{fill:url(#linear-gradient-3);}</style><linearGradient id="linear-gradient" x1="10.02" y1="1062.82" x2="19.79" y2="1077.77" gradientTransform="translate(0 -1064.34)" gradientUnits="userSpaceOnUse"><stop offset="0" stop-color="#71d1ff"/><stop offset="1" stop-color="#40c2ff"/></linearGradient><linearGradient id="linear-gradient-2" x1="15.85" y1="1064.35" x2="15.85" y2="1075.02" gradientTransform="translate(0 -1064.34)" gradientUnits="userSpaceOnUse"><stop offset="0" stop-color="#0d4b69" stop-opacity="0"/><stop offset="1" stop-color="#0d4b69" stop-opacity="0.5"/></linearGradient><linearGradient id="linear-gradient-3" x1="139.02" y1="1070.22" x2="151.23" y2="1088.92" gradientTransform="translate(-136 -1068.34)" gradientUnits="userSpaceOnUse"><stop offset="0" stop-color="#b0eaff"/><stop offset="1" stop-color="#59caff"/></linearGradient></defs><g id="Layer_2" data-name="Layer 2"><g id="Layer_1-2" data-name="Layer 1"><path class="cls-1" d="M9.1,19.4,6.7,23.7a.71.71,0,0,1-.6.3.68.68,0,0,1-.7-.7.37.37,0,0,1,.1-.3l2.4-4.3a.81.81,0,0,1,.9-.3h0a.69.69,0,0,1,.3,1Zm3.7,0-2.4,4.3a.81.81,0,0,1-.9.3.81.81,0,0,1-.3-.9h0l2.4-4.3a.81.81,0,0,1,.9-.3h0c.3.1.4.6.3.9Zm-7.4,0L3,23.7a.81.81,0,0,1-.9.3.81.81,0,0,1-.3-.9h0l2.4-4.3a.81.81,0,0,1,.9-.3h0c.4.1.5.5.3.9Zm11,0L14,23.7a.81.81,0,0,1-.9.3.81.81,0,0,1-.3-.9h0l2.4-4.3a.81.81,0,0,1,.9-.3h0c.4.1.5.5.3.9Z"/><path id="IF" class="cls-2" d="M21.4,10.7A3,3,0,0,0,24,7.8,2.8,2.8,0,0,0,21.8,5a5.61,5.61,0,0,0-5.5-5,5.55,5.55,0,0,0-4.7,2.7h-.1a3.91,3.91,0,0,0-3.8,4,4,4,0,0,0,3.6,4Z"/><path id="IF-2" data-name="IF" class="cls-3" d="M21.4,10.7A3,3,0,0,0,24,7.8,2.8,2.8,0,0,0,21.8,5a5.61,5.61,0,0,0-5.5-5,5.55,5.55,0,0,0-4.7,2.7h-.1a3.91,3.91,0,0,0-3.8,4,4,4,0,0,0,3.6,4Z"/><path id="Hr" class="cls-4" d="M16.5,17.2a4,4,0,0,0,3.9-4,4.17,4.17,0,0,0-2.9-3.9,2.89,2.89,0,0,0-3.1-2.9,2.38,2.38,0,0,0-1.2.3A4.66,4.66,0,0,0,7.1,4.2a4.51,4.51,0,0,0-2.7,3,5,5,0,0,0-4.4,5,4.91,4.91,0,0,0,4.8,5Z"/></g></g></svg>