<svg xmlns="http://www.w3.org/2000/svg" xmlns:xlink="http://www.w3.org/1999/xlink" viewBox="0 0 24 24"><defs><style>.cls-1{fill:none;}.cls-2{clip-path:url(#clip-path);}.cls-3{fill:url(#linear-gradient);}.cls-4{fill-opacity:0.2;fill:url(#linear-gradient-2);}.cls-5{fill:url(#linear-gradient-3);}.cls-6,.cls-7{fill-rule:evenodd;}.cls-6{fill:url(#linear-gradient-4);}.cls-7{fill:#7bd6ff;}</style><clipPath id="clip-path"><rect class="cls-1" width="24" height="24"/></clipPath><linearGradient id="linear-gradient" x1="10.03" y1="1062.74" x2="19.8" y2="1077.69" gradientTransform="translate(0 -1064.34)" gradientUnits="userSpaceOnUse"><stop offset="0" stop-color="#71d1ff"/><stop offset="1" stop-color="#40c2ff"/></linearGradient><linearGradient id="linear-gradient-2" x1="15.85" y1="1064.3" x2="15.85" y2="1074.97" gradientTransform="translate(0 -1064.34)" gradientUnits="userSpaceOnUse"><stop offset="0" stop-color="#0d4b69" stop-opacity="0"/><stop offset="1" stop-color="#0d4b69" stop-opacity="0.5"/></linearGradient><linearGradient id="linear-gradient-3" x1="3.03" y1="1066.14" x2="15.24" y2="1084.84" gradientTransform="translate(0 -1064.34)" gradientUnits="userSpaceOnUse"><stop offset="0" stop-color="#b0eaff"/><stop offset="1" stop-color="#59caff"/></linearGradient><linearGradient id="linear-gradient-4" x1="12.7" y1="1072.97" x2="12.7" y2="1086.3" gradientTransform="translate(0 -1064.34)" gradientUnits="userSpaceOnUse"><stop offset="0" stop-color="#fff733"/><stop offset="1" stop-color="#ffd600"/></linearGradient></defs><g id="Layer_2" data-name="Layer 2"><g id="Layer_1-2" data-name="Layer 1"><g class="cls-2"><path id="IJ" class="cls-3" d="M21.4,10.6A3,3,0,0,0,24,7.7a2.8,2.8,0,0,0-2.2-2.8,5.61,5.61,0,0,0-5.5-5,5.55,5.55,0,0,0-4.7,2.7h-.1a3.91,3.91,0,0,0-3.8,4,4,4,0,0,0,3.6,4Z"/><path id="IJ-2" data-name="IJ" class="cls-4" d="M21.4,10.6A3,3,0,0,0,24,7.7a2.8,2.8,0,0,0-2.2-2.8,5.61,5.61,0,0,0-5.5-5,5.55,5.55,0,0,0-4.7,2.7h-.1a3.91,3.91,0,0,0-3.8,4,4,4,0,0,0,3.6,4Z"/><path class="cls-5" d="M16.5,17.1a4,4,0,0,0,3.9-4,4.17,4.17,0,0,0-2.9-3.9,2.89,2.89,0,0,0-3.1-2.9,2.38,2.38,0,0,0-1.2.3A4.66,4.66,0,0,0,7.1,4.1a4.51,4.51,0,0,0-2.7,3,5,5,0,0,0-4.4,5,4.91,4.91,0,0,0,4.8,5Z"/><path class="cls-6" d="M10.8,8.6,8.5,15.4h3.6L9.9,22l7-9.3L13,12.6l1.3-3.8Z"/><path class="cls-7" d="M8.4,19.3,7.2,21.4a.81.81,0,0,1-.9.3.81.81,0,0,1-.3-.9H6l1.2-2.1a.81.81,0,0,1,.9-.3h0a.61.61,0,0,1,.3.9ZM2.6,23.6a.81.81,0,0,1-.9.3.81.81,0,0,1-.3-.9h0l2.4-4.3a.81.81,0,0,1,.9-.3h0a.81.81,0,0,1,.3.9H5L2.6,23.6Z"/></g></g></g></svg>