<svg xmlns="http://www.w3.org/2000/svg" xmlns:xlink="http://www.w3.org/1999/xlink" viewBox="0 0 24 24.04"><defs><style>.cls-1,.cls-2{fill:#7bd6ff;}.cls-2{fill-rule:evenodd;}.cls-3{fill:url(#linear-gradient);}.cls-4{fill-opacity:0.2;fill:url(#linear-gradient-2);}.cls-5{fill:url(#linear-gradient-3);}</style><linearGradient id="linear-gradient" x1="10.05" y1="1062.87" x2="19.82" y2="1077.81" gradientTransform="translate(0 -1064.34)" gradientUnits="userSpaceOnUse"><stop offset="0" stop-color="#71d1ff"/><stop offset="1" stop-color="#40c2ff"/></linearGradient><linearGradient id="linear-gradient-2" x1="15.85" y1="1064.41" x2="15.85" y2="1075.08" gradientTransform="translate(0 -1064.34)" gradientUnits="userSpaceOnUse"><stop offset="0" stop-color="#0d4b69" stop-opacity="0"/><stop offset="1" stop-color="#0d4b69" stop-opacity="0.5"/></linearGradient><linearGradient id="linear-gradient-3" x1="275.05" y1="1070.27" x2="287.25" y2="1088.96" gradientTransform="translate(-272 -1068.34)" gradientUnits="userSpaceOnUse"><stop offset="0" stop-color="#b0eaff"/><stop offset="1" stop-color="#59caff"/></linearGradient></defs><g id="Layer_2" data-name="Layer 2"><g id="Layer_1-2" data-name="Layer 1"><path id="Hy" class="cls-1" d="M9.1,19.5l-.2-.4a.37.37,0,0,0-.3-.1l-.8.5v-.8a.22.22,0,0,0-.2-.2H7.1a.22.22,0,0,0-.2.2v.8L6.1,19c-.1-.1-.2,0-.3.1l-.2.4c-.1.1,0,.2.1.3l.8.5-.8.5a.37.37,0,0,0-.1.3l.2.4a.37.37,0,0,0,.3.1l.8-.5v.8a.22.22,0,0,0,.2.2h.5a.22.22,0,0,0,.2-.2v-.8l.8.5c.1.1.2,0,.3-.1l.2-.4c.1-.1,0-.2-.1-.3l-.8-.5.8-.5C9.2,19.8,9.2,19.6,9.1,19.5Zm9,0-.2-.4a.37.37,0,0,0-.3-.1l-.8.5v-.8a.22.22,0,0,0-.2-.2h-.5a.22.22,0,0,0-.2.2v.8l-.8-.5c-.1-.1-.2,0-.3.1l-.2.4c-.1.1,0,.2.1.3l.8.5-.8.5a.37.37,0,0,0-.1.3l.2.4a.37.37,0,0,0,.3.1l.8-.5v.8a.22.22,0,0,0,.2.2h.5a.22.22,0,0,0,.2-.2h0v-.8l.8.5c.1.1.2,0,.3-.1l.2-.4c.1-.1,0-.2-.1-.3l-.8-.5.8-.5A.19.19,0,0,0,18.1,19.5Z"/><path id="Hz" class="cls-2" d="M4.4,19.4,1.9,23.7A.81.81,0,0,1,1,24a.81.81,0,0,1-.3-.9h0l2.5-4.3a.81.81,0,0,1,.9-.3h0a.61.61,0,0,1,.3.9Zm9,0-2.5,4.3a.81.81,0,0,1-.9.3.81.81,0,0,1-.3-.9h0l2.5-4.3a.81.81,0,0,1,.9-.3h0a.69.69,0,0,1,.3.9Z"/><path id="IA" class="cls-3" d="M21.4,10.7A3,3,0,0,0,24,7.8,2.8,2.8,0,0,0,21.8,5a5.61,5.61,0,0,0-5.5-5,5.55,5.55,0,0,0-4.7,2.7h-.1a3.91,3.91,0,0,0-3.8,4,4,4,0,0,0,3.6,4Z"/><path id="IA-2" data-name="IA" class="cls-4" d="M21.4,10.7A3,3,0,0,0,24,7.8,2.8,2.8,0,0,0,21.8,5a5.61,5.61,0,0,0-5.5-5,5.55,5.55,0,0,0-4.7,2.7h-.1a3.91,3.91,0,0,0-3.8,4,4,4,0,0,0,3.6,4Z"/><path id="Hr" class="cls-5" d="M16.5,17.2a4,4,0,0,0,3.9-4,4.17,4.17,0,0,0-2.9-3.9,2.89,2.89,0,0,0-3.1-2.9,2.38,2.38,0,0,0-1.2.3A4.66,4.66,0,0,0,7.1,4.2a4.51,4.51,0,0,0-2.7,3,5,5,0,0,0-4.4,5,4.91,4.91,0,0,0,4.8,5Z"/></g></g></svg>