<svg xmlns="http://www.w3.org/2000/svg" xmlns:xlink="http://www.w3.org/1999/xlink" viewBox="0 0 24 24"><defs><style>.cls-1{fill:none;}.cls-2{clip-path:url(#clip-path);}.cls-3{fill:#7bd6ff;}.cls-4{fill:url(#linear-gradient);}.cls-5{fill-opacity:0.2;fill:url(#linear-gradient-2);}.cls-6{fill:url(#linear-gradient-3);}</style><clipPath id="clip-path"><rect class="cls-1" width="24" height="24"/></clipPath><linearGradient id="linear-gradient" x1="10.03" y1="1062.84" x2="19.8" y2="1077.78" gradientTransform="translate(0 -1064.34)" gradientUnits="userSpaceOnUse"><stop offset="0" stop-color="#71d1ff"/><stop offset="1" stop-color="#40c2ff"/></linearGradient><linearGradient id="linear-gradient-2" x1="15.85" y1="1064.38" x2="15.85" y2="1075.04" gradientTransform="translate(0 -1064.34)" gradientUnits="userSpaceOnUse"><stop offset="0" stop-color="#0d4b69" stop-opacity="0"/><stop offset="1" stop-color="#0d4b69" stop-opacity="0.5"/></linearGradient><linearGradient id="linear-gradient-3" x1="3.03" y1="1066.24" x2="15.24" y2="1084.93" gradientTransform="translate(0 -1064.34)" gradientUnits="userSpaceOnUse"><stop offset="0" stop-color="#b0eaff"/><stop offset="1" stop-color="#59caff"/></linearGradient></defs><g id="Layer_2" data-name="Layer 2"><g id="Layer_1-2" data-name="Layer 1"><g class="cls-2"><path class="cls-3" d="M7.4,19.1l-.2-.3a.37.37,0,0,0-.3-.1l-.7.4v-.7a.22.22,0,0,0-.2-.2H5.6a.22.22,0,0,0-.2.2v.7l-.7-.4c-.1-.1-.2,0-.3.1l-.2.3c-.1.1,0,.2.1.3h0l.7.4-.7.4a.37.37,0,0,0-.1.3l.2.3a.37.37,0,0,0,.3.1l.7-.4v.7a.22.22,0,0,0,.2.2H6a.22.22,0,0,0,.2-.2v-.7l.7.4c.1.1.2,0,.3-.1l.2-.3c.1-.1,0-.2-.1-.3h0l-.7-.4.7-.4a.37.37,0,0,0,.1-.3Zm4.2,0-.2-.3a.37.37,0,0,0-.3-.1l-.7.4v-.7a.22.22,0,0,0-.2-.2H9.8a.22.22,0,0,0-.2.2v.7l-.7-.4c-.1-.1-.2,0-.3.1l-.2.3c-.1.1,0,.2.1.3h0l.7.4-.7.4a.37.37,0,0,0-.1.3l.2.3a.37.37,0,0,0,.3.1l.7-.4v.7a.22.22,0,0,0,.2.2h.4a.22.22,0,0,0,.2-.2v-.7l.7.4c.1.1.2,0,.3-.1l.2-.3c.1-.1,0-.2-.1-.3h0l-.7-.4.7-.4c.2-.1.2-.2.1-.3Zm4.3,0-.2-.3a.37.37,0,0,0-.3-.1l-.7.4v-.7a.22.22,0,0,0-.2-.2h-.4a.22.22,0,0,0-.2.2v.7l-.7-.4c-.1-.1-.2,0-.3.1l-.2.3c-.1.1,0,.2.1.3h0l.7.4-.7.4a.37.37,0,0,0-.1.3l.2.3a.37.37,0,0,0,.3.1l.7-.4v.7a.22.22,0,0,0,.2.2h.4a.22.22,0,0,0,.2-.2v-.7l.7.4c.1.1.2,0,.3-.1l.2-.3c.1-.1,0-.2-.1-.3h0l-.7-.4.7-.4a.37.37,0,0,0,.1-.3Z"/><path id="IE" class="cls-4" d="M21.4,10.7A3,3,0,0,0,24,7.8,2.8,2.8,0,0,0,21.8,5a5.61,5.61,0,0,0-5.5-5,5.55,5.55,0,0,0-4.7,2.7h-.1a3.91,3.91,0,0,0-3.8,4,4,4,0,0,0,3.6,4Z"/><path id="IE-2" data-name="IE" class="cls-5" d="M21.4,10.7A3,3,0,0,0,24,7.8,2.8,2.8,0,0,0,21.8,5a5.61,5.61,0,0,0-5.5-5,5.55,5.55,0,0,0-4.7,2.7h-.1a3.91,3.91,0,0,0-3.8,4,4,4,0,0,0,3.6,4Z"/><path class="cls-6" d="M16.5,17.2a4,4,0,0,0,3.9-4,4.17,4.17,0,0,0-2.9-3.9,2.89,2.89,0,0,0-3.1-2.9,2.38,2.38,0,0,0-1.2.3A4.66,4.66,0,0,0,7.1,4.2a4.51,4.51,0,0,0-2.7,3,5,5,0,0,0-4.4,5,4.91,4.91,0,0,0,4.8,5Z"/></g></g></g></svg>