<svg xmlns="http://www.w3.org/2000/svg" xmlns:xlink="http://www.w3.org/1999/xlink" viewBox="0 0 24.1 17.6"><defs><style>.cls-1{fill:url(#linear-gradient);}.cls-2{fill-opacity:0.2;fill:url(#linear-gradient-2);}.cls-3{fill:url(#linear-gradient-3);}</style><linearGradient id="linear-gradient" x1="10.15" y1="1062.87" x2="19.92" y2="1077.82" gradientTransform="translate(0 -1064.34)" gradientUnits="userSpaceOnUse"><stop offset="0" stop-color="#c8dde6"/><stop offset="1" stop-color="#9ec0d0"/></linearGradient><linearGradient id="linear-gradient-2" x1="15.95" y1="1064.42" x2="15.95" y2="1075.09" gradientTransform="translate(0 -1064.34)" gradientUnits="userSpaceOnUse"><stop offset="0" stop-opacity="0"/><stop offset="1" stop-opacity="0.3"/></linearGradient><linearGradient id="linear-gradient-3" x1="3.11" y1="1066.63" x2="15.31" y2="1085.33" gradientTransform="translate(0 -1064.34)" gradientUnits="userSpaceOnUse"><stop offset="0" stop-color="#d3e5ec"/><stop offset="1" stop-color="#b1d1e0"/></linearGradient></defs><g id="Layer_2" data-name="Layer 2"><g id="Layer_1-2" data-name="Layer 1"><path id="Ib" class="cls-1" d="M21.5,10.7a2.92,2.92,0,0,0,2.6-2.9A2.8,2.8,0,0,0,21.9,5a5.61,5.61,0,0,0-5.5-5,5.42,5.42,0,0,0-4.7,2.7h-.1a3.91,3.91,0,0,0-3.8,4,4,4,0,0,0,3.6,4Z"/><path id="Ib-2" data-name="Ib" class="cls-2" d="M21.5,10.7a2.92,2.92,0,0,0,2.6-2.9A2.8,2.8,0,0,0,21.9,5a5.61,5.61,0,0,0-5.5-5,5.42,5.42,0,0,0-4.7,2.7h-.1a3.91,3.91,0,0,0-3.8,4,4,4,0,0,0,3.6,4Z"/><path id="Ic" class="cls-3" d="M16.6,17.6a4,4,0,0,0,3.9-4,4.17,4.17,0,0,0-2.9-3.9,2.89,2.89,0,0,0-3.1-2.9,3.08,3.08,0,0,0-1.3.3,4.68,4.68,0,0,0-8.8.4,5,5,0,0,0-4.4,5,4.91,4.91,0,0,0,4.8,5C4.9,17.6,16.6,17.6,16.6,17.6Z"/></g></g></svg>