<svg xmlns="http://www.w3.org/2000/svg" xmlns:xlink="http://www.w3.org/1999/xlink" viewBox="0 0 24 24"><defs><style>.cls-1{fill:none;}.cls-2{clip-path:url(#clip-path);}.cls-3{fill:#7bd6ff;fill-rule:evenodd;}.cls-4{fill:url(#linear-gradient);}.cls-5{fill-opacity:0.2;fill:url(#linear-gradient-2);}.cls-6{fill:url(#linear-gradient-3);}</style><clipPath id="clip-path"><rect class="cls-1" width="24" height="24"/></clipPath><linearGradient id="linear-gradient" x1="10.03" y1="1062.74" x2="19.8" y2="1077.69" gradientTransform="translate(0 -1064.34)" gradientUnits="userSpaceOnUse"><stop offset="0" stop-color="#c8dde6"/><stop offset="1" stop-color="#9ec0d0"/></linearGradient><linearGradient id="linear-gradient-2" x1="15.85" y1="1064.3" x2="15.85" y2="1074.96" gradientTransform="translate(0 -1064.34)" gradientUnits="userSpaceOnUse"><stop offset="0" stop-opacity="0"/><stop offset="1" stop-opacity="0.3"/></linearGradient><linearGradient id="linear-gradient-3" x1="3.02" y1="1066.15" x2="15.22" y2="1084.84" gradientTransform="translate(0 -1064.34)" gradientUnits="userSpaceOnUse"><stop offset="0" stop-color="#d3e5ec"/><stop offset="1" stop-color="#b1d1e0"/></linearGradient></defs><g id="Layer_2" data-name="Layer 2"><g id="Layer_1-2" data-name="Layer 1"><g class="cls-2"><path class="cls-3" d="M12.7,19.3l-1.2,2.2a.81.81,0,0,1-.9.3.81.81,0,0,1-.3-.9h0l1.2-2.1a.81.81,0,0,1,.9-.3A.5.5,0,0,1,12.7,19.3ZM6.9,23.6a.81.81,0,0,1-.9.3.69.69,0,0,1-.3-.9h0l2.4-4.3a.75.75,0,0,1,1-.2.65.65,0,0,1,.2.9L6.9,23.6Z"/><path id="Id" class="cls-4" d="M21.4,10.6A2.92,2.92,0,0,0,24,7.7a2.8,2.8,0,0,0-2.2-2.8,5.61,5.61,0,0,0-5.5-5,5.42,5.42,0,0,0-4.7,2.7h-.1a3.91,3.91,0,0,0-3.8,4,4,4,0,0,0,3.6,4Z"/><path id="Id-2" data-name="Id" class="cls-5" d="M21.4,10.6A2.92,2.92,0,0,0,24,7.7a2.8,2.8,0,0,0-2.2-2.8,5.61,5.61,0,0,0-5.5-5,5.42,5.42,0,0,0-4.7,2.7h-.1a3.91,3.91,0,0,0-3.8,4,4,4,0,0,0,3.6,4Z"/><path class="cls-6" d="M16.5,17.1a4,4,0,0,0,3.9-4,4.17,4.17,0,0,0-2.9-3.9,2.89,2.89,0,0,0-3.1-2.9,3.08,3.08,0,0,0-1.3.3A4.68,4.68,0,0,0,4.3,7,5,5,0,0,0-.1,12a4.91,4.91,0,0,0,4.8,5C4.8,17.1,16.5,17.1,16.5,17.1Z"/></g></g></g></svg>