<svg xmlns="http://www.w3.org/2000/svg" xmlns:xlink="http://www.w3.org/1999/xlink" viewBox="0 0 24.1 24.04"><defs><style>.cls-1{fill:#7bd6ff;fill-rule:evenodd;}.cls-2{fill:url(#linear-gradient);}.cls-3{fill-opacity:0.2;fill:url(#linear-gradient-2);}.cls-4{fill:url(#linear-gradient-3);}</style><linearGradient id="linear-gradient" x1="-91.87" y1="1062.84" x2="-82.1" y2="1077.79" gradientTransform="translate(102 -1064.34)" gradientUnits="userSpaceOnUse"><stop offset="0" stop-color="#c8dde6"/><stop offset="1" stop-color="#9ec0d0"/></linearGradient><linearGradient id="linear-gradient-2" x1="-86.05" y1="1064.4" x2="-86.05" y2="1075.07" gradientTransform="translate(102 -1064.34)" gradientUnits="userSpaceOnUse"><stop offset="0" stop-opacity="0"/><stop offset="1" stop-opacity="0.3"/></linearGradient><linearGradient id="linear-gradient-3" x1="-132.87" y1="1070.25" x2="-120.67" y2="1088.95" gradientTransform="translate(136 -1068.34)" gradientUnits="userSpaceOnUse"><stop offset="0" stop-color="#d3e5ec"/><stop offset="1" stop-color="#b1d1e0"/></linearGradient></defs><g id="Layer_2" data-name="Layer 2"><g id="Layer_1-2" data-name="Layer 1"><path id="If" class="cls-1" d="M13.2,19.4l-2.4,4.3a.81.81,0,0,1-.9.3.81.81,0,0,1-.3-.9h0L12,18.8a.81.81,0,0,1,.9-.3C13.2,18.6,13.3,19.1,13.2,19.4Zm-3.7,0L7.1,23.7a.81.81,0,0,1-.9.3.69.69,0,0,1-.3-.9h0l2.4-4.3a.81.81,0,0,1,.9-.3A.66.66,0,0,1,9.5,19.4Z"/><path id="Id" class="cls-2" d="M21.5,10.7a2.92,2.92,0,0,0,2.6-2.9A2.8,2.8,0,0,0,21.9,5a5.61,5.61,0,0,0-5.5-5,5.42,5.42,0,0,0-4.7,2.7h-.1a3.91,3.91,0,0,0-3.8,4,4,4,0,0,0,3.6,4Z"/><path id="Id-2" data-name="Id" class="cls-3" d="M21.5,10.7a2.92,2.92,0,0,0,2.6-2.9A2.8,2.8,0,0,0,21.9,5a5.61,5.61,0,0,0-5.5-5,5.42,5.42,0,0,0-4.7,2.7h-.1a3.91,3.91,0,0,0-3.8,4,4,4,0,0,0,3.6,4Z"/><path id="Ic" class="cls-4" d="M16.6,17.2a4,4,0,0,0,3.9-4,4.17,4.17,0,0,0-2.9-3.9,2.89,2.89,0,0,0-3.1-2.9,3.08,3.08,0,0,0-1.3.3,4.68,4.68,0,0,0-8.8.4,5,5,0,0,0-4.4,5,4.91,4.91,0,0,0,4.8,5C4.9,17.2,16.6,17.2,16.6,17.2Z"/></g></g></svg>