<svg xmlns="http://www.w3.org/2000/svg" xmlns:xlink="http://www.w3.org/1999/xlink" viewBox="0 0 24 24.1"><defs><style>.cls-1{fill:#7bd6ff;fill-rule:evenodd;}.cls-2{fill:url(#linear-gradient);}.cls-3{fill-opacity:0.2;fill:url(#linear-gradient-2);}.cls-4{fill:url(#linear-gradient-3);}</style><linearGradient id="linear-gradient" x1="-363.95" y1="1062.87" x2="-354.18" y2="1077.82" gradientTransform="translate(374 -1064.34)" gradientUnits="userSpaceOnUse"><stop offset="0" stop-color="#c8dde6"/><stop offset="1" stop-color="#9ec0d0"/></linearGradient><linearGradient id="linear-gradient-2" x1="-358.15" y1="1064.4" x2="-358.15" y2="1075.07" gradientTransform="translate(374 -1064.34)" gradientUnits="userSpaceOnUse"><stop offset="0" stop-opacity="0"/><stop offset="1" stop-opacity="0.3"/></linearGradient><linearGradient id="linear-gradient-3" x1="-404.89" y1="1070.23" x2="-392.69" y2="1088.93" gradientTransform="translate(408 -1068.34)" gradientUnits="userSpaceOnUse"><stop offset="0" stop-color="#d3e5ec"/><stop offset="1" stop-color="#b1d1e0"/></linearGradient></defs><g id="Layer_2" data-name="Layer 2"><g id="Layer_1-2" data-name="Layer 1"><path id="IW" class="cls-1" d="M7.4,19.4,5,23.7a.81.81,0,0,1-.9.3.81.81,0,0,1-.3-.9h0l2.4-4.3a.81.81,0,0,1,.9-.3A.61.61,0,0,1,7.4,19.4Zm3.7,0L8.7,23.7a.71.71,0,0,1-.6.3.37.37,0,0,1-.3-.1.69.69,0,0,1-.3-.9h0l2.4-4.3a.81.81,0,0,1,.9-.3A.73.73,0,0,1,11.1,19.4Zm-7.6-.9a.61.61,0,0,0-.9.3h0L.2,23.1a.59.59,0,0,0,.3.9.59.59,0,0,0,.9-.3l2.4-4.3A.69.69,0,0,0,3.5,18.5Zm15,.9-2.4,4.3a.81.81,0,0,1-.9.3.81.81,0,0,1-.3-.9h0l2.4-4.3a.81.81,0,0,1,.9-.3h0A.69.69,0,0,1,18.5,19.4Zm-6.2,4.3a.81.81,0,0,1-.9.3.81.81,0,0,1-.3-.9h0l2.4-4.3a.75.75,0,0,1,1-.2.65.65,0,0,1,.2.9Z"/><path id="Id" class="cls-2" d="M21.4,10.7A2.92,2.92,0,0,0,24,7.8,2.8,2.8,0,0,0,21.8,5a5.61,5.61,0,0,0-5.5-5,5.42,5.42,0,0,0-4.7,2.7h-.1a3.91,3.91,0,0,0-3.8,4,4,4,0,0,0,3.6,4Z"/><path id="Id-2" data-name="Id" class="cls-3" d="M21.4,10.7A2.92,2.92,0,0,0,24,7.8,2.8,2.8,0,0,0,21.8,5a5.61,5.61,0,0,0-5.5-5,5.42,5.42,0,0,0-4.7,2.7h-.1a3.91,3.91,0,0,0-3.8,4,4,4,0,0,0,3.6,4Z"/><path id="Ic" class="cls-4" d="M16.6,17.2a4,4,0,0,0,3.9-4,4.17,4.17,0,0,0-2.9-3.9,2.89,2.89,0,0,0-3.1-2.9,3.08,3.08,0,0,0-1.3.3,4.68,4.68,0,0,0-8.8.4,5,5,0,0,0-4.4,5,4.91,4.91,0,0,0,4.8,5C4.9,17.2,16.6,17.2,16.6,17.2Z"/></g></g></svg>