<svg xmlns="http://www.w3.org/2000/svg" xmlns:xlink="http://www.w3.org/1999/xlink" viewBox="0 0 24 24"><defs><style>.cls-1{fill:none;}.cls-2{clip-path:url(#clip-path);}.cls-3{fill:url(#linear-gradient);}.cls-4{fill-opacity:0.2;fill:url(#linear-gradient-2);}.cls-5{fill:url(#linear-gradient-3);}.cls-6,.cls-8{fill:#7bd6ff;}.cls-6,.cls-7{fill-rule:evenodd;}.cls-7{fill:url(#linear-gradient-4);}</style><clipPath id="clip-path"><rect class="cls-1" width="24" height="24"/></clipPath><linearGradient id="linear-gradient" x1="10.09" y1="1062.78" x2="19.86" y2="1077.73" gradientTransform="translate(0 -1064.34)" gradientUnits="userSpaceOnUse"><stop offset="0" stop-color="#c8dde6"/><stop offset="1" stop-color="#9ec0d0"/></linearGradient><linearGradient id="linear-gradient-2" x1="15.95" y1="1064.34" x2="15.95" y2="1075.01" gradientTransform="translate(0 -1064.34)" gradientUnits="userSpaceOnUse"><stop offset="0" stop-opacity="0"/><stop offset="1" stop-opacity="0.3"/></linearGradient><linearGradient id="linear-gradient-3" x1="3.09" y1="1066.19" x2="15.29" y2="1084.89" gradientTransform="translate(0 -1064.34)" gradientUnits="userSpaceOnUse"><stop offset="0" stop-color="#d3e5ec"/><stop offset="1" stop-color="#b1d1e0"/></linearGradient><linearGradient id="linear-gradient-4" x1="12.7" y1="1073.01" x2="12.7" y2="1086.34" gradientTransform="translate(0 -1064.34)" gradientUnits="userSpaceOnUse"><stop offset="0" stop-color="#fff733"/><stop offset="1" stop-color="#ffd600"/></linearGradient></defs><g id="Layer_2" data-name="Layer 2"><g id="Layer_1-2" data-name="Layer 1"><g class="cls-2"><path class="cls-3" d="M21.5,10.7a2.92,2.92,0,0,0,2.6-2.9A2.8,2.8,0,0,0,21.9,5a5.61,5.61,0,0,0-5.5-5,5.42,5.42,0,0,0-4.7,2.7h-.1a3.91,3.91,0,0,0-3.8,4,4,4,0,0,0,3.6,4Z"/><path class="cls-4" d="M21.5,10.7a2.92,2.92,0,0,0,2.6-2.9A2.8,2.8,0,0,0,21.9,5a5.61,5.61,0,0,0-5.5-5,5.42,5.42,0,0,0-4.7,2.7h-.1a3.91,3.91,0,0,0-3.8,4,4,4,0,0,0,3.6,4Z"/><path class="cls-5" d="M16.6,17.2a4,4,0,0,0,3.9-4,4.17,4.17,0,0,0-2.9-3.9,2.89,2.89,0,0,0-3.1-2.9,3.08,3.08,0,0,0-1.3.3,4.68,4.68,0,0,0-8.8.4,5,5,0,0,0-4.4,5,4.91,4.91,0,0,0,4.8,5C4.9,17.2,16.6,17.2,16.6,17.2Z"/><path class="cls-6" d="M8.4,19.4,7.2,21.5a.82.82,0,0,1-.6.4.68.68,0,0,1-.7-.7.37.37,0,0,1,.1-.3l1.2-2.1a.81.81,0,0,1,.9-.3C8.5,18.6,8.6,19,8.4,19.4ZM2.7,23.6a.81.81,0,0,1-.9.3.69.69,0,0,1-.3-.9h0l2.4-4.3a.75.75,0,0,1,1-.2.65.65,0,0,1,.2.9L2.7,23.6Z"/><path class="cls-7" d="M10.8,8.7,8.5,15.5h3.6L9.9,22.1l7-9.3L13,12.7l1.3-3.8-3.5-.2Z"/><path id="Im" class="cls-8" d="M18.7,19.3l-.2-.4c-.1-.1-.2-.2-.3-.1l-.9.5v-.9a.22.22,0,0,0-.2-.2h-.5a.22.22,0,0,0-.2.2v.9l-.9-.5a.19.19,0,0,0-.3.1l-.2.4a.19.19,0,0,0,.1.3h0l.9.5-.9.5c-.1.1-.2.2-.1.3h0l.2.4c.1.1.2.2.3.1l.7-.4v.9a.22.22,0,0,0,.2.2h.5a.22.22,0,0,0,.2-.2V21l.9.5a.19.19,0,0,0,.3-.1l.2-.4a.19.19,0,0,0-.1-.3h0l-.9-.5.9-.5a.37.37,0,0,0,.3-.4Z"/></g></g></g></svg>