<svg xmlns="http://www.w3.org/2000/svg" xmlns:xlink="http://www.w3.org/1999/xlink" viewBox="0 0 24.1 23.9"><defs><style>.cls-1,.cls-2{fill:#7bd6ff;}.cls-2{fill-rule:evenodd;}.cls-3{fill:url(#linear-gradient);}.cls-4{fill-opacity:0.2;fill:url(#linear-gradient-2);}.cls-5{fill:url(#linear-gradient-3);}</style><linearGradient id="linear-gradient" x1="-23.87" y1="1062.84" x2="-14.1" y2="1077.79" gradientTransform="translate(34 -1064.34)" gradientUnits="userSpaceOnUse"><stop offset="0" stop-color="#c8dde6"/><stop offset="1" stop-color="#9ec0d0"/></linearGradient><linearGradient id="linear-gradient-2" x1="-18.05" y1="1064.41" x2="-18.05" y2="1075.07" gradientTransform="translate(34 -1064.34)" gradientUnits="userSpaceOnUse"><stop offset="0" stop-opacity="0"/><stop offset="1" stop-opacity="0.3"/></linearGradient><linearGradient id="linear-gradient-3" x1="-64.88" y1="1070.25" x2="-52.68" y2="1088.94" gradientTransform="translate(68 -1068.34)" gradientUnits="userSpaceOnUse"><stop offset="0" stop-color="#d3e5ec"/><stop offset="1" stop-color="#b1d1e0"/></linearGradient></defs><g id="Layer_2" data-name="Layer 2"><g id="Layer_1-2" data-name="Layer 1"><path class="cls-1" d="M16.1,19.4l-.2-.4a.37.37,0,0,0-.3-.1h0l-.8.5v-.8a.22.22,0,0,0-.2-.2h-.5a.22.22,0,0,0-.2.2v.8l-.8-.5a.19.19,0,0,0-.3.1l-.2.4c-.1.1,0,.2.1.3l.8.5-.8.5a.37.37,0,0,0-.1.3l.2.4a.37.37,0,0,0,.3.1l.8-.5v.8a.22.22,0,0,0,.2.2h.5a.22.22,0,0,0,.2-.2V21l.7.4c.1.1.2,0,.3-.1l.2-.4c.1-.1,0-.2-.1-.3l-.8-.5.8-.5C16.1,19.6,16.1,19.5,16.1,19.4Z"/><path class="cls-2" d="M10.2,19.3,9,21.4a.6.6,0,0,1-.6.3.37.37,0,0,1-.3-.1.81.81,0,0,1-.3-.9h0L9,18.6a.81.81,0,0,1,.9-.3h0a.91.91,0,0,1,.3,1Zm-3.4,0L4.3,23.6a.6.6,0,0,1-.6.3.37.37,0,0,1-.3-.1.81.81,0,0,1-.3-.9h0l2.5-4.3a.81.81,0,0,1,.9-.3.74.74,0,0,1,.3,1Z"/><path id="Id" class="cls-3" d="M21.5,10.7a2.92,2.92,0,0,0,2.6-2.9A2.8,2.8,0,0,0,21.9,5a5.61,5.61,0,0,0-5.5-5,5.55,5.55,0,0,0-4.7,2.7h-.1a3.91,3.91,0,0,0-3.8,4,4,4,0,0,0,3.6,4Z"/><path id="Id-2" data-name="Id" class="cls-4" d="M21.5,10.7a2.92,2.92,0,0,0,2.6-2.9A2.8,2.8,0,0,0,21.9,5a5.61,5.61,0,0,0-5.5-5,5.55,5.55,0,0,0-4.7,2.7h-.1a3.91,3.91,0,0,0-3.8,4,4,4,0,0,0,3.6,4Z"/><path id="Ic" class="cls-5" d="M16.6,17.2a4,4,0,0,0,3.9-4,4.17,4.17,0,0,0-2.9-3.9,2.89,2.89,0,0,0-3.1-2.9,3.08,3.08,0,0,0-1.3.3,4.68,4.68,0,0,0-8.8.4,5,5,0,0,0-4.4,5,4.91,4.91,0,0,0,4.8,5C4.9,17.2,16.6,17.2,16.6,17.2Z"/></g></g></svg>