<svg xmlns="http://www.w3.org/2000/svg" xmlns:xlink="http://www.w3.org/1999/xlink" viewBox="0 0 24.1 21.4"><defs><style>.cls-1{fill:#7bd6ff;}.cls-2{fill:url(#linear-gradient);}.cls-3{fill-opacity:0.2;fill:url(#linear-gradient-2);}.cls-4{fill:url(#linear-gradient-3);}</style><linearGradient id="linear-gradient" x1="-57.88" y1="1062.83" x2="-48.11" y2="1077.78" gradientTransform="translate(68 -1064.34)" gradientUnits="userSpaceOnUse"><stop offset="0" stop-color="#c8dde6"/><stop offset="1" stop-color="#9ec0d0"/></linearGradient><linearGradient id="linear-gradient-2" x1="-52.05" y1="1064.39" x2="-52.05" y2="1075.05" gradientTransform="translate(68 -1064.34)" gradientUnits="userSpaceOnUse"><stop offset="0" stop-opacity="0"/><stop offset="1" stop-opacity="0.3"/></linearGradient><linearGradient id="linear-gradient-3" x1="-98.88" y1="1070.24" x2="-86.68" y2="1088.93" gradientTransform="translate(102 -1068.34)" gradientUnits="userSpaceOnUse"><stop offset="0" stop-color="#d3e5ec"/><stop offset="1" stop-color="#b1d1e0"/></linearGradient></defs><g id="Layer_2" data-name="Layer 2"><g id="Layer_1-2" data-name="Layer 1"><path id="Ie" class="cls-1" d="M11.7,19.1l-.2-.3c0-.1-.2-.1-.2-.1h0l-.7.4v-.7a.22.22,0,0,0-.2-.2H10a.22.22,0,0,0-.2.2v.7l-.7-.4c-.1-.1-.2,0-.2.1l-.2.3c-.1.1,0,.2.1.3l.7.4-.7.4a.37.37,0,0,0-.1.3l.2.3a.31.31,0,0,0,.2.1l.7-.4v.7a.22.22,0,0,0,.2.2h.4a.22.22,0,0,0,.2-.2v-.7l.7.4c.1.1.2,0,.2-.1l.2-.3c.1-.1,0-.2-.1-.3l-.7-.4.7-.4C11.7,19.3,11.8,19.2,11.7,19.1Z"/><path id="Id" class="cls-2" d="M21.5,10.7a2.92,2.92,0,0,0,2.6-2.9A2.8,2.8,0,0,0,21.9,5a5.61,5.61,0,0,0-5.5-5,5.42,5.42,0,0,0-4.7,2.7h-.1a3.91,3.91,0,0,0-3.8,4,4,4,0,0,0,3.6,4Z"/><path id="Id-2" data-name="Id" class="cls-3" d="M21.5,10.7a2.92,2.92,0,0,0,2.6-2.9A2.8,2.8,0,0,0,21.9,5a5.61,5.61,0,0,0-5.5-5,5.42,5.42,0,0,0-4.7,2.7h-.1a3.91,3.91,0,0,0-3.8,4,4,4,0,0,0,3.6,4Z"/><path id="Ic" class="cls-4" d="M16.6,17.2a4,4,0,0,0,3.9-4,4.17,4.17,0,0,0-2.9-3.9,2.89,2.89,0,0,0-3.1-2.9,3.08,3.08,0,0,0-1.3.3,4.68,4.68,0,0,0-8.8.4,5,5,0,0,0-4.4,5,4.91,4.91,0,0,0,4.8,5C4.9,17.2,16.6,17.2,16.6,17.2Z"/></g></g></svg>