<svg xmlns="http://www.w3.org/2000/svg" xmlns:xlink="http://www.w3.org/1999/xlink" viewBox="0 0 24 24"><defs><style>.cls-1{fill:none;}.cls-2{clip-path:url(#clip-path);}.cls-3{fill:url(#linear-gradient);}.cls-4{fill-opacity:0.2;fill:url(#linear-gradient-2);}.cls-5{fill:url(#linear-gradient-3);}.cls-6{fill-rule:evenodd;fill:url(#linear-gradient-4);}.cls-7{fill:#7bd6ff;}</style><clipPath id="clip-path"><rect class="cls-1" width="24" height="24"/></clipPath><linearGradient id="linear-gradient" x1="10.04" y1="1062.75" x2="19.81" y2="1077.7" gradientTransform="translate(0 -1064.34)" gradientUnits="userSpaceOnUse"><stop offset="0" stop-color="#c8dde6"/><stop offset="1" stop-color="#9ec0d0"/></linearGradient><linearGradient id="linear-gradient-2" x1="15.85" y1="1064.31" x2="15.85" y2="1074.98" gradientTransform="translate(0 -1064.34)" gradientUnits="userSpaceOnUse"><stop offset="0" stop-opacity="0"/><stop offset="1" stop-opacity="0.3"/></linearGradient><linearGradient id="linear-gradient-3" x1="3.03" y1="1066.16" x2="15.23" y2="1084.85" gradientTransform="translate(0 -1064.34)" gradientUnits="userSpaceOnUse"><stop offset="0" stop-color="#d3e5ec"/><stop offset="1" stop-color="#b1d1e0"/></linearGradient><linearGradient id="linear-gradient-4" x1="12.7" y1="1072.98" x2="12.7" y2="1086.31" gradientTransform="translate(0 -1064.34)" gradientUnits="userSpaceOnUse"><stop offset="0" stop-color="#fff733"/><stop offset="1" stop-color="#ffd600"/></linearGradient></defs><g id="Layer_2" data-name="Layer 2"><g id="Layer_1-2" data-name="Layer 1"><g class="cls-2"><path class="cls-3" d="M21.4,10.6A2.92,2.92,0,0,0,24,7.7a2.8,2.8,0,0,0-2.2-2.8,5.61,5.61,0,0,0-5.5-5,5.42,5.42,0,0,0-4.7,2.7h-.1a3.91,3.91,0,0,0-3.8,4,4,4,0,0,0,3.6,4Z"/><path class="cls-4" d="M21.4,10.6A2.92,2.92,0,0,0,24,7.7a2.8,2.8,0,0,0-2.2-2.8,5.61,5.61,0,0,0-5.5-5,5.42,5.42,0,0,0-4.7,2.7h-.1a3.91,3.91,0,0,0-3.8,4,4,4,0,0,0,3.6,4Z"/><path class="cls-5" d="M16.5,17.1a4,4,0,0,0,3.9-4,4.17,4.17,0,0,0-2.9-3.9,2.89,2.89,0,0,0-3.1-2.9,3.08,3.08,0,0,0-1.3.3A4.68,4.68,0,0,0,4.3,7,5,5,0,0,0-.1,12a4.91,4.91,0,0,0,4.8,5C4.8,17.1,16.5,17.1,16.5,17.1Z"/><path class="cls-6" d="M10.8,8.6,8.5,15.4h3.6L9.9,22l7-9.3L13,12.6l1.3-3.8-3.5-.2Z"/><path class="cls-7" d="M8.1,19.3l-.2-.4c-.1-.1-.2-.2-.3-.1l-.9.5v-.9a.22.22,0,0,0-.2-.2H6a.22.22,0,0,0-.2.2v.9l-.9-.5a.19.19,0,0,0-.3.1l-.2.4a.19.19,0,0,0,.1.3h0l.9.5-.9.5c-.1.1-.2.2-.1.3h0l.2.4c.1.1.2.2.3.1l.9-.5v1a.22.22,0,0,0,.2.2h.5a.22.22,0,0,0,.2-.2V21l.9.5a.19.19,0,0,0,.3-.1l.2-.4a.19.19,0,0,0-.1-.3H8l-.9-.5.9-.5c.1-.1.2-.3.1-.4Z"/></g></g></g></svg>