<svg xmlns="http://www.w3.org/2000/svg" xmlns:xlink="http://www.w3.org/1999/xlink" viewBox="0 0 24 24"><defs><style>.cls-1{fill:none;}.cls-2{clip-path:url(#clip-path);}.cls-3{fill:#7bd6ff;}.cls-4{fill:url(#linear-gradient);}.cls-5{fill-opacity:0.2;fill:url(#linear-gradient-2);}.cls-6{fill:url(#linear-gradient-3);}</style><clipPath id="clip-path"><rect class="cls-1" width="24" height="24"/></clipPath><linearGradient id="linear-gradient" x1="10.02" y1="1062.82" x2="19.79" y2="1077.77" gradientTransform="translate(0 -1064.34)" gradientUnits="userSpaceOnUse"><stop offset="0" stop-color="#c8dde6"/><stop offset="1" stop-color="#9ec0d0"/></linearGradient><linearGradient id="linear-gradient-2" x1="15.85" y1="1064.36" x2="15.85" y2="1075.02" gradientTransform="translate(0 -1064.34)" gradientUnits="userSpaceOnUse"><stop offset="0" stop-opacity="0"/><stop offset="1" stop-opacity="0.3"/></linearGradient><linearGradient id="linear-gradient-3" x1="3.01" y1="1066.23" x2="15.21" y2="1084.92" gradientTransform="translate(0 -1064.34)" gradientUnits="userSpaceOnUse"><stop offset="0" stop-color="#d3e5ec"/><stop offset="1" stop-color="#b1d1e0"/></linearGradient></defs><g id="Layer_2" data-name="Layer 2"><g id="Layer_1-2" data-name="Layer 1"><g class="cls-2"><path class="cls-3" d="M9.5,19.1l-.2-.3a.31.31,0,0,0-.2-.1l-.7.4v-.7a.22.22,0,0,0-.2-.2H7.8a.22.22,0,0,0-.2.2v.7l-.7-.4c-.1-.1-.2,0-.2.1h0l-.2.3c-.1.1,0,.2.1.3l.7.4-.7.4a.37.37,0,0,0-.1.3l.3.1c0,.1.2.1.2.1H7l.7-.4V21a.22.22,0,0,0,.2.2h.4a.22.22,0,0,0,.2-.2v-.7l.7.4c.1.1.2,0,.2-.1l.2-.3c.1-.1,0-.2-.1-.3l-.7-.4.7-.4C9.5,19.3,9.6,19.1,9.5,19.1ZM7.4,21.9l-.2-.3c0-.1-.2-.1-.2-.1H7l-.7.4v-.7a.22.22,0,0,0-.2-.2H5.7a.22.22,0,0,0-.2.2v.7l-.7-.4c-.1-.1-.2,0-.2.1l-.2.3c-.1.1,0,.2.1.3l.7.4-.7.4a.37.37,0,0,0-.1.3l.2.3a.31.31,0,0,0,.2.1l.7-.4V24a.22.22,0,0,0,.2.2h.4a.22.22,0,0,0,.2-.2v-.7l.7.4c.1.1.2,0,.2-.1h0l.2-.3c.1-.1,0-.2-.1-.3l-.7-.4.7-.4a.37.37,0,0,0,.1-.3Zm4.2,0-.2-.3c0-.1-.2-.1-.2-.1h0l-.7.4v-.7a.22.22,0,0,0-.2-.2H9.9a.22.22,0,0,0-.2.2v.7L9,21.5c-.1-.1-.2,0-.2.1l-.2.3c-.1.1,0,.2.1.3l.7.4-.7.4a.37.37,0,0,0-.1.3l.2.3a.31.31,0,0,0,.2.1l.7-.4V24a.22.22,0,0,0,.2.2h.4a.22.22,0,0,0,.2-.2v-.7l.7.4c.1.1.2,0,.2-.1h0l.2-.3c.1-.1,0-.2-.1-.3l-.7-.4.7-.4c.1-.1.2-.2.1-.3Zm2.2-2.8-.2-.3a.37.37,0,0,0-.3-.1l-.7.4v-.7a.22.22,0,0,0-.2-.2H12a.22.22,0,0,0-.2.2v.7l-.7-.4c-.1-.1-.2,0-.2.1h0l-.2.3c-.1.1,0,.2.1.3l.7.4-.7.4a.37.37,0,0,0-.1.3l.2.3c0,.1.2.1.2.1h0l.7-.4v.7a.22.22,0,0,0,.2.2h.4a.22.22,0,0,0,.2-.2v-.7l.7.4c.1.1.2,0,.3-.1l.2-.3c.1-.1,0-.2-.1-.3l-.7-.4.7-.4A.49.49,0,0,0,13.8,19.1Z"/><path class="cls-4" d="M21.4,10.7A2.92,2.92,0,0,0,24,7.8,2.8,2.8,0,0,0,21.8,5a5.61,5.61,0,0,0-5.5-5,5.42,5.42,0,0,0-4.7,2.7h-.1a3.91,3.91,0,0,0-3.8,4,4,4,0,0,0,3.6,4Z"/><path class="cls-5" d="M21.4,10.7A2.92,2.92,0,0,0,24,7.8,2.8,2.8,0,0,0,21.8,5a5.61,5.61,0,0,0-5.5-5,5.42,5.42,0,0,0-4.7,2.7h-.1a3.91,3.91,0,0,0-3.8,4,4,4,0,0,0,3.6,4Z"/><path class="cls-6" d="M16.5,17.2a4,4,0,0,0,3.9-4,4.17,4.17,0,0,0-2.9-3.9,2.89,2.89,0,0,0-3.1-2.9,3.08,3.08,0,0,0-1.3.3,4.68,4.68,0,0,0-8.8.4,5,5,0,0,0-4.4,5,4.91,4.91,0,0,0,4.8,5C4.8,17.2,16.5,17.2,16.5,17.2Z"/></g></g></g></svg>