<svg xmlns="http://www.w3.org/2000/svg" xmlns:xlink="http://www.w3.org/1999/xlink" viewBox="0 0 24 24"><defs><style>.cls-1{fill:none;}.cls-2{clip-path:url(#clip-path);}.cls-3{fill:url(#linear-gradient);}.cls-4{fill:#fff59d;}</style><clipPath id="clip-path"><rect class="cls-1" width="24" height="24"/></clipPath><linearGradient id="linear-gradient" x1="2.66" y1="1066.66" x2="21.31" y2="1086.18" gradientTransform="translate(0 -1064.34)" gradientUnits="userSpaceOnUse"><stop offset="0" stop-color="#ffda57"/><stop offset="1" stop-color="#fccf2e"/></linearGradient></defs><g id="Layer_2" data-name="Layer 2"><g id="Layer_1-2" data-name="Layer 1"><g class="cls-2"><path class="cls-3" d="M12,19.1,9,21.4,7.9,17.8l-3.8.1,1.2-3.6L2.2,12.1,5.3,9.9,4.1,6.3l3.8.1L9,2.8l3,2.3,3-2.3,1.1,3.6,3.8-.1L18.7,9.9l3.1,2.2-3.1,2.2,1.2,3.6-3.8-.1L15,21.4Z"/><path class="cls-4" d="M12,17.4A5.4,5.4,0,1,0,6.6,12,5.44,5.44,0,0,0,12,17.4Z"/></g></g></g></svg>