<svg xmlns="http://www.w3.org/2000/svg" xmlns:xlink="http://www.w3.org/1999/xlink" viewBox="0 0 17.79 18.3"><defs><style>.cls-1{fill:url(#linear-gradient);}</style><linearGradient id="linear-gradient" x1="-0.46" y1="1065.97" x2="16.95" y2="1083.89" gradientTransform="translate(0 -1064.34)" gradientUnits="userSpaceOnUse"><stop offset="0" stop-color="#d9e9f1"/><stop offset="1" stop-color="#bfd7e2"/></linearGradient></defs><g id="Layer_2" data-name="Layer 2"><g id="Layer_1-2" data-name="Layer 1"><path class="cls-1" d="M17.41,11.8a.45.45,0,0,0-.5,0,8.49,8.49,0,0,1-2.2.9,6.47,6.47,0,0,1-2.4.1,6.87,6.87,0,0,1-4.5-2.7A7.17,7.17,0,0,1,6.51,5a8.08,8.08,0,0,1,.7-2.2A6.23,6.23,0,0,1,8.61,1a.52.52,0,0,0,0-.8.76.76,0,0,0-.5-.2,8.91,8.91,0,0,0-5.3,2.6A9.71,9.71,0,0,0,.11,7.8a9.12,9.12,0,0,0,1.7,6.8,8.64,8.64,0,0,0,6,3.6,9.14,9.14,0,0,0,5.9-1.1,8.44,8.44,0,0,0,3.9-4.6c.3-.2.2-.5-.2-.7Z"/></g></g></svg>